M48
; DRILL file {KiCad 9.0.5} date 2025-10-28T20:55:27+0500
; FORMAT={-:-/ absolute / metric / decimal}
; #@! TF.CreationDate,2025-10-28T20:55:27+05:00
; #@! TF.GenerationSoftware,Kicad,Pcbnew,9.0.5
; #@! TF.FileFunction,Plated,1,6,PTH
FMAT,2
METRIC
; #@! TA.AperFunction,Plated,PTH,ViaDrill
T1C0.300
; #@! TA.AperFunction,Plated,PTH,ComponentDrill
T2C1.000
; #@! TA.AperFunction,Plated,PTH,ComponentDrill
T3C1.050
; #@! TA.AperFunction,Plated,PTH,ComponentDrill
T4C1.100
; #@! TA.AperFunction,Plated,PTH,ComponentDrill
T5C1.200
; #@! TA.AperFunction,Plated,PTH,ComponentDrill
T6C1.400
; #@! TA.AperFunction,Plated,PTH,ComponentDrill
T7C1.800
; #@! TA.AperFunction,Plated,PTH,ComponentDrill
T8C2.000
; #@! TA.AperFunction,Plated,PTH,ComponentDrill
T9C2.200
%
G90
G05
T1
X58.36Y-72.43
X58.36Y-73.43
X58.37Y-36.43
X58.37Y-37.43
X58.37Y-38.43
X58.37Y-39.43
X58.37Y-40.43
X58.37Y-41.43
X58.37Y-42.43
X58.37Y-43.43
X58.37Y-44.43
X58.37Y-45.43
X58.37Y-46.43
X58.37Y-47.43
X58.37Y-48.43
X58.37Y-49.43
X58.37Y-50.43
X58.37Y-51.43
X58.37Y-52.43
X58.37Y-53.43
X58.37Y-54.43
X58.37Y-55.43
X58.37Y-56.43
X58.37Y-57.43
X58.37Y-58.43
X58.37Y-59.43
X58.37Y-60.43
X58.37Y-61.43
X58.37Y-62.43
X58.37Y-63.43
X58.37Y-64.43
X58.37Y-65.43
X58.37Y-66.43
X58.37Y-67.43
X58.37Y-68.43
X58.37Y-69.43
X58.37Y-70.43
X58.37Y-71.43
X59.37Y-36.43
X59.37Y-37.43
X59.37Y-38.43
X59.37Y-39.43
X59.37Y-40.43
X59.37Y-41.43
X59.37Y-42.43
X59.37Y-43.43
X59.37Y-44.43
X59.37Y-45.43
X59.37Y-46.43
X59.37Y-47.43
X59.37Y-48.43
X59.37Y-49.43
X59.37Y-50.43
X59.37Y-51.43
X59.37Y-52.43
X59.37Y-53.43
X59.37Y-54.43
X59.37Y-55.43
X59.37Y-56.43
X59.37Y-57.43
X59.37Y-58.43
X59.37Y-59.43
X59.37Y-60.43
X59.37Y-61.43
X59.37Y-62.43
X59.37Y-63.43
X59.37Y-64.43
X59.37Y-65.43
X59.37Y-66.43
X59.37Y-67.43
X59.37Y-68.43
X59.37Y-69.43
X59.37Y-70.43
X59.37Y-71.43
X59.37Y-72.43
X59.37Y-73.43
X60.37Y-36.43
X60.37Y-37.43
X60.37Y-38.43
X60.37Y-39.43
X60.37Y-40.43
X60.37Y-41.43
X60.37Y-42.43
X60.37Y-43.43
X60.37Y-44.43
X60.37Y-45.43
X60.37Y-46.43
X60.37Y-47.43
X60.37Y-48.43
X60.37Y-49.43
X60.37Y-50.43
X60.37Y-51.43
X60.37Y-52.43
X60.37Y-53.43
X60.37Y-54.43
X60.37Y-55.43
X60.37Y-56.43
X60.37Y-57.43
X60.37Y-58.43
X60.37Y-59.43
X60.37Y-60.43
X60.37Y-61.43
X60.37Y-62.43
X60.37Y-63.43
X60.37Y-64.43
X60.37Y-65.43
X60.37Y-66.43
X60.37Y-67.43
X60.37Y-68.43
X60.37Y-69.43
X60.37Y-70.43
X60.37Y-71.43
X60.37Y-72.43
X60.37Y-73.43
X61.37Y-36.43
X61.37Y-37.43
X61.37Y-38.43
X61.37Y-39.43
X61.37Y-40.43
X61.37Y-41.43
X61.37Y-42.43
X61.37Y-43.43
X61.37Y-44.43
X61.37Y-45.43
X61.37Y-46.43
X61.37Y-47.43
X61.37Y-48.43
X61.37Y-49.43
X61.37Y-50.43
X61.37Y-51.43
X61.37Y-52.43
X61.37Y-53.43
X61.37Y-54.43
X61.37Y-55.43
X61.37Y-56.43
X61.37Y-57.43
X61.37Y-58.43
X61.37Y-59.43
X61.37Y-60.43
X61.37Y-61.43
X61.37Y-62.43
X61.37Y-63.43
X61.37Y-64.43
X61.37Y-65.43
X61.37Y-66.43
X61.37Y-67.43
X61.37Y-68.43
X61.37Y-69.43
X61.37Y-70.43
X61.37Y-71.43
X61.37Y-72.43
X61.37Y-73.43
X62.37Y-36.43
X62.37Y-37.43
X62.37Y-38.43
X62.37Y-39.43
X62.37Y-40.43
X62.37Y-41.43
X62.37Y-42.43
X62.37Y-43.43
X62.37Y-44.43
X62.37Y-45.43
X62.37Y-46.43
X62.37Y-47.43
X62.37Y-48.43
X62.37Y-49.43
X62.37Y-50.43
X62.37Y-51.43
X62.37Y-52.43
X62.37Y-53.43
X62.37Y-54.43
X62.37Y-55.43
X62.37Y-56.43
X62.37Y-57.43
X62.37Y-58.43
X62.37Y-59.43
X62.37Y-60.43
X62.37Y-61.43
X62.37Y-62.43
X62.37Y-63.43
X62.37Y-64.43
X62.37Y-65.43
X62.37Y-66.43
X62.37Y-67.43
X62.37Y-68.43
X62.37Y-69.43
X62.37Y-70.43
X62.37Y-71.43
X62.37Y-72.43
X62.37Y-73.43
X62.6Y-88.725
X62.9Y-102.225
X63.37Y-36.43
X63.37Y-37.43
X63.37Y-38.43
X63.37Y-39.43
X63.37Y-40.43
X63.37Y-41.43
X63.37Y-42.43
X63.37Y-43.43
X63.37Y-44.43
X63.37Y-45.43
X63.37Y-46.43
X63.37Y-47.43
X63.37Y-48.43
X63.37Y-49.43
X63.37Y-50.43
X63.37Y-51.43
X63.37Y-52.43
X63.37Y-53.43
X63.37Y-54.43
X63.37Y-55.43
X63.37Y-56.43
X63.37Y-57.43
X63.37Y-58.43
X63.37Y-59.43
X63.37Y-60.43
X63.37Y-61.43
X63.37Y-62.43
X63.37Y-63.43
X63.37Y-64.43
X63.37Y-65.43
X63.37Y-66.43
X63.37Y-67.43
X63.37Y-68.43
X63.37Y-69.43
X63.37Y-70.43
X63.37Y-71.43
X63.37Y-72.43
X63.37Y-73.43
X63.8Y-99.325
X65.1Y-94.325
X68.0Y-35.24
X68.0Y-36.25
X68.0Y-37.25
X68.0Y-38.25
X68.0Y-39.25
X68.0Y-40.25
X68.0Y-101.225
X69.0Y-35.24
X69.0Y-36.25
X69.0Y-37.25
X69.0Y-38.25
X69.0Y-39.25
X69.0Y-40.25
X69.0Y-101.225
X69.23Y-104.33
X69.5Y-88.725
X69.5Y-91.325
X69.88Y-104.37
X70.0Y-35.24
X70.0Y-36.25
X70.0Y-37.25
X70.0Y-38.25
X70.0Y-39.25
X70.0Y-40.25
X71.0Y-35.24
X71.0Y-36.25
X71.0Y-37.25
X71.0Y-38.25
X71.0Y-39.25
X71.0Y-40.25
X71.0Y-101.225
X71.6Y-42.925
X72.0Y-35.24
X72.0Y-36.25
X72.0Y-37.25
X72.0Y-38.25
X72.0Y-39.25
X72.0Y-40.25
X73.0Y-58.9
X73.0Y-60.125
X73.6Y-42.925
X73.996Y-104.625
X74.3Y-98.625
X75.0Y-101.225
X75.496Y-104.625
X76.0Y-101.225
X76.742Y-104.642
X77.0Y-101.225
X77.25Y-35.24
X77.25Y-36.25
X77.25Y-37.25
X77.25Y-38.25
X77.25Y-39.25
X77.25Y-40.25
X77.3Y-58.925
X77.325Y-60.0
X77.5Y-92.525
X77.5Y-93.425
X77.5Y-94.925
X77.6Y-82.625
X77.6Y-83.625
X77.69Y-48.86
X77.69Y-49.87
X77.69Y-50.87
X77.69Y-51.87
X77.69Y-52.87
X77.69Y-53.87
X78.2Y-43.3
X78.25Y-35.24
X78.25Y-36.25
X78.25Y-37.25
X78.25Y-38.25
X78.25Y-39.25
X78.25Y-40.25
X78.69Y-48.86
X78.69Y-49.87
X78.69Y-50.87
X78.69Y-51.87
X78.69Y-52.87
X78.69Y-53.87
X79.25Y-35.24
X79.25Y-36.25
X79.25Y-37.25
X79.25Y-38.25
X79.25Y-39.25
X79.25Y-40.25
X79.69Y-48.86
X79.69Y-49.87
X79.69Y-50.87
X79.69Y-51.87
X79.69Y-52.87
X79.69Y-53.87
X80.0Y-107.425
X80.0Y-107.425
X80.0Y-108.425
X80.25Y-35.24
X80.25Y-36.25
X80.25Y-37.25
X80.25Y-38.25
X80.25Y-39.25
X80.25Y-40.25
X80.69Y-48.86
X80.69Y-49.87
X80.69Y-50.87
X80.69Y-51.87
X80.69Y-52.87
X80.69Y-53.87
X80.7Y-43.3
X80.8Y-73.225
X81.25Y-35.24
X81.25Y-36.25
X81.25Y-37.25
X81.25Y-38.25
X81.25Y-39.25
X81.25Y-40.25
X81.69Y-48.86
X81.69Y-49.87
X81.69Y-50.87
X81.69Y-51.87
X81.69Y-52.87
X81.69Y-53.87
X81.8Y-73.225
X82.69Y-48.86
X82.69Y-49.87
X82.69Y-50.87
X82.69Y-51.87
X82.69Y-52.87
X82.69Y-53.87
X82.75Y-99.5
X82.75Y-100.5
X83.69Y-48.87
X83.69Y-49.87
X83.69Y-50.87
X83.69Y-51.87
X83.69Y-52.87
X83.69Y-53.87
X84.0Y-73.49
X84.0Y-74.5
X84.0Y-75.5
X84.0Y-76.5
X84.0Y-77.5
X84.0Y-78.5
X84.0Y-99.5
X84.0Y-100.5
X84.0Y-101.5
X84.25Y-84.99
X84.25Y-86.0
X84.25Y-87.0
X84.25Y-88.0
X84.25Y-89.0
X84.25Y-90.0
X84.69Y-48.87
X84.69Y-49.87
X84.69Y-50.87
X84.69Y-51.87
X84.69Y-52.87
X84.69Y-53.87
X85.0Y-73.49
X85.0Y-74.5
X85.0Y-75.5
X85.0Y-76.5
X85.0Y-77.5
X85.0Y-78.5
X85.25Y-84.99
X85.25Y-86.0
X85.25Y-87.0
X85.25Y-88.0
X85.25Y-89.0
X85.25Y-90.0
X85.69Y-48.87
X85.69Y-49.87
X85.69Y-50.87
X85.69Y-51.87
X85.69Y-52.87
X85.69Y-53.87
X86.0Y-73.49
X86.0Y-74.5
X86.0Y-75.5
X86.0Y-76.5
X86.0Y-77.5
X86.0Y-78.5
X86.25Y-84.99
X86.25Y-86.0
X86.25Y-87.0
X86.25Y-88.0
X86.25Y-89.0
X86.25Y-90.0
X86.25Y-104.0
X87.0Y-73.49
X87.0Y-74.5
X87.0Y-75.5
X87.0Y-76.5
X87.0Y-77.5
X87.0Y-78.5
X87.25Y-84.99
X87.25Y-86.0
X87.25Y-87.0
X87.25Y-88.0
X87.25Y-89.0
X87.25Y-90.0
X87.5Y-96.425
X87.5Y-104.25
X87.5Y-105.25
X88.0Y-73.49
X88.0Y-74.5
X88.0Y-75.5
X88.0Y-76.5
X88.0Y-77.5
X88.0Y-78.5
X88.25Y-84.99
X88.25Y-86.0
X88.25Y-87.0
X88.25Y-88.0
X88.25Y-89.0
X88.25Y-90.0
X88.5Y-96.425
X88.5Y-103.25
X88.5Y-104.25
X88.5Y-105.25
X89.5Y-101.25
X89.5Y-102.25
X89.5Y-103.25
X89.5Y-104.725
X89.5Y-107.825
X89.9Y-96.425
X90.5Y-104.725
X90.5Y-107.825
X90.7Y-31.96
X90.7Y-32.97
X90.7Y-33.97
X90.7Y-34.97
X90.7Y-35.97
X90.7Y-36.97
X91.6Y-44.0
X91.6Y-49.0
X91.6Y-51.5
X91.6Y-54.0
X91.6Y-56.5
X91.6Y-61.5
X91.6Y-64.0
X91.6Y-66.5
X91.6Y-69.0
X91.6Y-74.0
X91.6Y-76.5
X91.6Y-79.0
X91.6Y-84.0
X91.6Y-86.5
X91.6Y-89.0
X91.6Y-94.0
X91.7Y-31.96
X91.7Y-32.97
X91.7Y-33.97
X91.7Y-34.97
X91.7Y-35.97
X91.7Y-36.97
X92.7Y-31.97
X92.7Y-32.97
X92.7Y-33.97
X92.7Y-34.97
X92.7Y-35.97
X92.7Y-36.97
X93.7Y-31.97
X93.7Y-32.97
X93.7Y-33.97
X93.7Y-34.97
X93.7Y-35.97
X93.7Y-36.97
X94.1Y-44.0
X94.1Y-49.0
X94.1Y-51.5
X94.1Y-54.0
X94.1Y-56.5
X94.1Y-61.5
X94.1Y-64.0
X94.1Y-66.5
X94.1Y-69.0
X94.1Y-74.0
X94.1Y-76.5
X94.1Y-79.0
X94.1Y-84.0
X94.1Y-86.5
X94.1Y-89.0
X94.1Y-94.0
X94.1Y-96.5
X94.7Y-31.97
X94.7Y-32.97
X94.7Y-33.97
X94.7Y-34.97
X94.7Y-35.97
X94.7Y-36.97
X95.0Y-100.0
X95.7Y-31.97
X95.7Y-32.97
X95.7Y-33.97
X95.7Y-34.97
X95.7Y-35.97
X95.7Y-36.97
X96.0Y-99.0
X96.0Y-100.0
X96.6Y-46.5
X96.6Y-49.0
X96.6Y-51.5
X96.6Y-54.0
X96.6Y-56.5
X96.6Y-59.0
X96.6Y-61.5
X96.6Y-64.0
X96.6Y-66.5
X96.6Y-69.0
X96.6Y-71.5
X96.6Y-74.0
X96.6Y-76.5
X96.6Y-79.0
X96.6Y-81.5
X96.6Y-84.0
X96.6Y-86.5
X96.6Y-89.0
X96.6Y-91.5
X96.6Y-94.0
X96.6Y-96.5
X96.62Y-44.03
X96.7Y-31.97
X96.7Y-32.97
X96.7Y-33.97
X96.7Y-34.97
X96.7Y-35.97
X96.7Y-36.97
X97.0Y-100.0
X97.25Y-103.75
X97.7Y-31.97
X97.7Y-32.97
X97.7Y-33.97
X97.7Y-34.97
X97.7Y-35.97
X97.7Y-36.97
X98.5Y-105.75
X98.6Y-71.5
X98.61Y-44.02
X98.62Y-46.51
X98.62Y-73.52
X98.7Y-31.97
X98.7Y-32.97
X98.7Y-33.97
X98.7Y-34.97
X98.7Y-35.97
X98.7Y-36.97
X98.8Y-102.325
X98.8Y-103.65
X99.09Y-98.3
X99.1Y-96.5
X99.7Y-31.97
X99.7Y-32.97
X99.7Y-33.97
X99.7Y-34.97
X99.7Y-35.97
X99.7Y-36.97
X99.79Y-83.71
X99.79Y-84.72
X99.79Y-85.72
X99.79Y-86.72
X99.79Y-87.72
X99.79Y-88.72
X99.88Y-58.37
X99.88Y-59.38
X99.88Y-60.38
X99.88Y-61.38
X99.88Y-62.38
X99.88Y-63.38
X100.0Y-105.75
X100.075Y-108.925
X100.343Y-75.044
X100.522Y-49.302
X100.57Y-98.89
X100.58Y-96.87
X100.6Y-46.9
X100.6Y-72.92
X100.61Y-44.88
X100.61Y-70.9
X100.7Y-31.97
X100.7Y-32.97
X100.7Y-33.97
X100.7Y-34.97
X100.7Y-35.97
X100.7Y-36.97
X100.79Y-83.71
X100.79Y-84.72
X100.79Y-85.72
X100.79Y-86.72
X100.79Y-87.72
X100.79Y-88.72
X100.88Y-58.37
X100.88Y-59.38
X100.88Y-60.38
X100.88Y-61.38
X100.88Y-62.38
X100.88Y-63.38
X101.295Y-102.311
X101.295Y-103.632
X101.3Y-100.125
X101.3Y-101.125
X101.4Y-108.925
X101.5Y-106.025
X101.58Y-97.87
X101.59Y-95.89
X101.6Y-49.325
X101.6Y-75.325
X101.61Y-45.88
X101.61Y-71.9
X101.62Y-43.9
X101.62Y-69.92
X101.65Y-53.625
X101.7Y-31.97
X101.7Y-32.97
X101.7Y-33.97
X101.7Y-34.97
X101.7Y-35.97
X101.7Y-36.97
X101.79Y-83.71
X101.79Y-84.72
X101.79Y-85.72
X101.79Y-86.72
X101.79Y-87.72
X101.79Y-88.72
X101.8Y-51.825
X101.8Y-52.725
X101.8Y-77.825
X101.8Y-78.725
X101.8Y-79.625
X101.88Y-58.37
X101.88Y-59.38
X101.88Y-60.38
X101.88Y-61.38
X101.88Y-62.38
X101.88Y-63.38
X102.5Y-106.025
X102.58Y-96.87
X102.59Y-98.88
X102.591Y-49.327
X102.6Y-54.925
X102.6Y-55.825
X102.6Y-80.925
X102.6Y-81.825
X102.61Y-44.88
X102.61Y-70.9
X102.62Y-46.89
X102.62Y-72.91
X102.69Y-75.32
X102.7Y-31.97
X102.7Y-32.97
X102.7Y-33.97
X102.7Y-34.97
X102.7Y-35.97
X102.7Y-36.97
X102.7Y-101.125
X102.79Y-83.71
X102.79Y-84.72
X102.79Y-85.72
X102.79Y-86.72
X102.79Y-87.72
X102.79Y-88.72
X102.88Y-58.37
X102.88Y-59.38
X102.88Y-60.38
X102.88Y-61.38
X102.88Y-62.38
X102.88Y-63.38
X103.59Y-97.88
X103.6Y-95.87
X103.62Y-45.89
X103.62Y-71.91
X103.63Y-43.88
X103.63Y-69.9
X103.7Y-31.97
X103.7Y-32.97
X103.7Y-33.97
X103.7Y-34.97
X103.7Y-35.97
X103.7Y-36.97
X103.7Y-101.125
X103.708Y-75.311
X103.79Y-83.71
X103.79Y-84.72
X103.79Y-85.72
X103.79Y-86.72
X103.79Y-87.72
X103.79Y-88.72
X103.88Y-58.37
X103.88Y-59.38
X103.88Y-60.38
X103.88Y-61.38
X103.88Y-62.38
X103.88Y-63.38
X104.05Y-76.29
X104.07Y-50.15
X104.2Y-51.3
X104.292Y-79.517
X104.292Y-102.311
X104.292Y-103.625
X104.3Y-52.425
X104.3Y-53.525
X104.311Y-78.389
X104.329Y-77.296
X104.58Y-98.92
X104.6Y-96.88
X104.61Y-46.93
X104.61Y-72.95
X104.63Y-44.89
X104.63Y-70.91
X104.7Y-31.97
X104.7Y-32.97
X104.7Y-33.97
X104.7Y-34.97
X104.7Y-35.97
X104.7Y-36.97
X104.79Y-83.71
X104.79Y-84.72
X104.79Y-85.72
X104.79Y-86.72
X104.79Y-87.72
X104.79Y-88.72
X104.88Y-58.37
X104.88Y-59.38
X104.88Y-60.38
X104.88Y-61.38
X104.88Y-62.38
X104.88Y-63.38
X105.7Y-31.97
X105.7Y-32.97
X105.7Y-33.97
X105.7Y-34.97
X105.7Y-35.97
X105.7Y-36.97
X105.79Y-83.72
X105.79Y-84.72
X105.79Y-85.72
X105.79Y-86.72
X105.79Y-87.72
X105.79Y-88.72
X105.88Y-58.38
X105.88Y-59.38
X105.88Y-60.38
X105.88Y-61.38
X105.88Y-62.38
X105.88Y-63.38
X106.7Y-31.97
X106.7Y-32.97
X106.7Y-33.97
X106.7Y-34.97
X106.7Y-35.97
X106.7Y-36.97
X106.79Y-83.72
X106.79Y-84.72
X106.79Y-85.72
X106.79Y-86.72
X106.79Y-87.72
X106.79Y-88.72
X106.88Y-58.38
X106.88Y-59.38
X106.88Y-60.38
X106.88Y-61.38
X106.88Y-62.38
X106.88Y-63.38
X107.7Y-31.97
X107.7Y-32.97
X107.7Y-33.97
X107.7Y-34.97
X107.7Y-35.97
X107.7Y-36.97
X107.79Y-83.72
X107.79Y-84.72
X107.79Y-85.72
X107.79Y-86.72
X107.79Y-87.72
X107.79Y-88.72
X107.88Y-58.38
X107.88Y-59.38
X107.88Y-60.38
X107.88Y-61.38
X107.88Y-62.38
X107.88Y-63.38
X108.6Y-51.725
X108.6Y-77.725
X108.7Y-31.97
X108.7Y-32.97
X108.7Y-33.97
X108.7Y-34.97
X108.7Y-35.97
X108.7Y-36.97
X109.45Y-103.95
X109.7Y-31.97
X109.7Y-32.97
X109.7Y-33.97
X109.7Y-34.97
X109.7Y-35.97
X109.7Y-36.97
X110.7Y-31.97
X110.7Y-32.97
X110.7Y-33.97
X110.7Y-34.97
X110.7Y-35.97
X110.7Y-36.97
X111.38Y-69.454
X111.38Y-70.454
X111.38Y-71.504
X111.38Y-72.503
X111.4Y-47.825
X111.4Y-73.825
X111.4Y-95.525
X111.4Y-96.5
X111.4Y-97.5
X111.4Y-98.55
X111.4Y-99.825
X111.6Y-105.525
X111.7Y-31.97
X111.7Y-32.97
X111.7Y-33.97
X111.7Y-34.97
X111.7Y-35.97
X111.7Y-36.97
X111.7Y-49.825
X111.7Y-50.825
X111.7Y-75.825
X111.7Y-76.825
X111.7Y-101.825
X111.7Y-102.825
X112.7Y-31.97
X112.7Y-32.97
X112.7Y-33.97
X112.7Y-34.97
X112.7Y-35.97
X112.7Y-36.97
X112.888Y-105.538
X112.9Y-51.125
X112.9Y-53.525
X112.9Y-77.12
X112.9Y-79.55
X112.928Y-103.099
X113.6Y-108.525
X113.7Y-31.97
X113.7Y-32.97
X113.7Y-33.97
X113.7Y-34.97
X113.7Y-35.97
X113.7Y-36.97
X113.939Y-67.511
X113.939Y-68.486
X113.939Y-69.486
X113.939Y-70.536
X113.939Y-71.535
X113.949Y-93.456
X113.949Y-94.431
X113.949Y-95.431
X113.949Y-96.481
X113.949Y-97.48
X114.1Y-51.125
X114.1Y-52.525
X114.1Y-55.025
X114.1Y-77.125
X114.1Y-78.525
X114.1Y-81.025
X114.1Y-103.125
X114.1Y-104.525
X114.7Y-31.97
X114.7Y-32.97
X114.7Y-33.97
X114.7Y-34.97
X114.7Y-35.97
X114.7Y-36.97
X114.7Y-108.525
X115.7Y-31.97
X115.7Y-32.97
X115.7Y-33.97
X115.7Y-34.97
X115.7Y-35.97
X115.7Y-36.97
X116.7Y-31.97
X116.7Y-32.97
X116.7Y-33.97
X116.7Y-34.97
X116.7Y-35.97
X116.7Y-36.97
X117.7Y-31.97
X117.7Y-32.97
X117.7Y-33.97
X117.7Y-34.97
X117.7Y-35.97
X117.7Y-36.97
X118.7Y-31.97
X118.7Y-32.97
X118.7Y-33.97
X118.7Y-34.97
X118.7Y-35.97
X118.7Y-36.97
X119.7Y-31.97
X119.7Y-32.97
X119.7Y-33.97
X119.7Y-34.97
X119.7Y-35.97
X119.7Y-36.97
X120.7Y-31.97
X120.7Y-32.97
X120.7Y-33.97
X120.7Y-34.97
X120.7Y-35.97
X120.7Y-36.97
X121.7Y-31.97
X121.7Y-32.97
X121.7Y-33.97
X121.7Y-34.97
X121.7Y-35.97
X121.7Y-36.97
X122.0Y-44.0
X122.0Y-45.0
X122.0Y-46.0
X122.0Y-47.0
X122.0Y-48.0
X122.0Y-49.0
X122.0Y-50.0
X122.0Y-51.0
X122.0Y-52.0
X122.0Y-53.0
X122.0Y-54.0
X122.0Y-55.0
X122.0Y-71.0
X122.0Y-72.0
X122.0Y-73.0
X122.0Y-74.0
X122.0Y-75.0
X122.0Y-76.0
X122.0Y-77.0
X122.0Y-78.0
X122.0Y-79.0
X122.0Y-80.0
X122.0Y-81.0
X122.0Y-82.0
X122.0Y-95.0
X122.0Y-96.0
X122.0Y-97.0
X122.0Y-98.0
X122.0Y-99.0
X122.0Y-100.0
X122.0Y-101.0
X122.0Y-102.0
X122.0Y-103.0
X122.0Y-104.0
X122.0Y-105.0
X122.0Y-106.0
X122.7Y-31.97
X122.7Y-32.97
X122.7Y-33.97
X122.7Y-34.97
X122.7Y-35.97
X122.7Y-36.97
X123.0Y-44.0
X123.0Y-45.0
X123.0Y-46.0
X123.0Y-47.0
X123.0Y-48.0
X123.0Y-49.0
X123.0Y-50.0
X123.0Y-51.0
X123.0Y-52.0
X123.0Y-53.0
X123.0Y-54.0
X123.0Y-55.0
X123.0Y-71.0
X123.0Y-72.0
X123.0Y-73.0
X123.0Y-74.0
X123.0Y-75.0
X123.0Y-76.0
X123.0Y-77.0
X123.0Y-78.0
X123.0Y-79.0
X123.0Y-80.0
X123.0Y-81.0
X123.0Y-82.0
X123.0Y-95.0
X123.0Y-96.0
X123.0Y-97.0
X123.0Y-98.0
X123.0Y-99.0
X123.0Y-100.0
X123.0Y-101.0
X123.0Y-102.0
X123.0Y-103.0
X123.0Y-104.0
X123.0Y-105.0
X123.0Y-106.0
X123.7Y-31.97
X123.7Y-32.97
X123.7Y-33.97
X123.7Y-34.97
X123.7Y-35.97
X123.7Y-36.97
X124.0Y-44.0
X124.0Y-45.0
X124.0Y-46.0
X124.0Y-47.0
X124.0Y-48.0
X124.0Y-49.0
X124.0Y-50.0
X124.0Y-51.0
X124.0Y-52.0
X124.0Y-53.0
X124.0Y-54.0
X124.0Y-55.0
X124.0Y-71.0
X124.0Y-72.0
X124.0Y-73.0
X124.0Y-74.0
X124.0Y-75.0
X124.0Y-76.0
X124.0Y-77.0
X124.0Y-78.0
X124.0Y-79.0
X124.0Y-80.0
X124.0Y-81.0
X124.0Y-82.0
X124.0Y-95.0
X124.0Y-96.0
X124.0Y-97.0
X124.0Y-98.0
X124.0Y-99.0
X124.0Y-100.0
X124.0Y-101.0
X124.0Y-102.0
X124.0Y-103.0
X124.0Y-104.0
X124.0Y-105.0
X124.0Y-106.0
X124.7Y-31.97
X124.7Y-32.97
X124.7Y-33.97
X124.7Y-34.97
X124.7Y-35.97
X124.7Y-36.97
X125.0Y-44.0
X125.0Y-45.0
X125.0Y-46.0
X125.0Y-47.0
X125.0Y-48.0
X125.0Y-49.0
X125.0Y-50.0
X125.0Y-51.0
X125.0Y-52.0
X125.0Y-53.0
X125.0Y-54.0
X125.0Y-55.0
X125.0Y-71.0
X125.0Y-72.0
X125.0Y-73.0
X125.0Y-74.0
X125.0Y-75.0
X125.0Y-76.0
X125.0Y-77.0
X125.0Y-78.0
X125.0Y-79.0
X125.0Y-80.0
X125.0Y-81.0
X125.0Y-82.0
X125.0Y-95.0
X125.0Y-96.0
X125.0Y-97.0
X125.0Y-98.0
X125.0Y-99.0
X125.0Y-100.0
X125.0Y-101.0
X125.0Y-102.0
X125.0Y-103.0
X125.0Y-104.0
X125.0Y-105.0
X125.0Y-106.0
X125.7Y-31.97
X125.7Y-32.97
X125.7Y-33.97
X125.7Y-34.97
X125.7Y-35.97
X125.7Y-36.97
X126.7Y-31.97
X126.7Y-32.97
X126.7Y-33.97
X126.7Y-34.97
X126.7Y-35.97
X126.7Y-36.97
X127.7Y-31.97
X127.7Y-32.97
X127.7Y-33.97
X127.7Y-34.97
X127.7Y-35.97
X127.7Y-36.97
X128.245Y-82.525
X128.27Y-106.832
X128.549Y-55.296
X129.0Y-44.0
X129.0Y-45.0
X129.0Y-46.0
X129.0Y-47.0
X129.0Y-48.0
X129.0Y-49.0
X129.0Y-50.0
X129.0Y-51.0
X129.0Y-52.0
X129.0Y-53.0
X129.0Y-54.0
X129.0Y-72.0
X129.0Y-73.0
X129.0Y-74.0
X129.0Y-75.0
X129.0Y-76.0
X129.0Y-77.0
X129.0Y-78.0
X129.0Y-79.0
X129.0Y-80.0
X129.0Y-81.0
X129.0Y-82.0
X129.0Y-98.0
X129.0Y-99.0
X129.0Y-100.0
X129.0Y-101.0
X129.0Y-102.0
X129.0Y-103.0
X129.0Y-104.0
X129.0Y-105.0
X129.0Y-106.0
X130.0Y-44.0
X130.0Y-45.0
X130.0Y-46.0
X130.0Y-47.0
X130.0Y-48.0
X130.0Y-49.0
X130.0Y-50.0
X130.0Y-51.0
X130.0Y-52.0
X130.0Y-53.0
X130.0Y-54.0
X130.0Y-72.0
X130.0Y-73.0
X130.0Y-74.0
X130.0Y-75.0
X130.0Y-76.0
X130.0Y-77.0
X130.0Y-78.0
X130.0Y-79.0
X130.0Y-80.0
X130.0Y-81.0
X130.0Y-82.0
X130.0Y-98.0
X130.0Y-99.0
X130.0Y-100.0
X130.0Y-101.0
X130.0Y-102.0
X130.0Y-103.0
X130.0Y-104.0
X130.0Y-105.0
X130.0Y-106.0
X131.0Y-44.0
X131.0Y-45.0
X131.0Y-46.0
X131.0Y-47.0
X131.0Y-48.0
X131.0Y-49.0
X131.0Y-50.0
X131.0Y-51.0
X131.0Y-52.0
X131.0Y-53.0
X131.0Y-54.0
X131.0Y-72.0
X131.0Y-73.0
X131.0Y-74.0
X131.0Y-75.0
X131.0Y-76.0
X131.0Y-77.0
X131.0Y-78.0
X131.0Y-79.0
X131.0Y-80.0
X131.0Y-81.0
X131.0Y-82.0
X131.0Y-98.0
X131.0Y-99.0
X131.0Y-100.0
X131.0Y-101.0
X131.0Y-102.0
X131.0Y-103.0
X131.0Y-104.0
X131.0Y-105.0
X131.0Y-106.0
X132.0Y-44.0
X132.0Y-45.0
X132.0Y-46.0
X132.0Y-47.0
X132.0Y-48.0
X132.0Y-49.0
X132.0Y-50.0
X132.0Y-51.0
X132.0Y-52.0
X132.0Y-53.0
X132.0Y-54.0
X132.0Y-72.0
X132.0Y-73.0
X132.0Y-74.0
X132.0Y-75.0
X132.0Y-76.0
X132.0Y-77.0
X132.0Y-78.0
X132.0Y-79.0
X132.0Y-80.0
X132.0Y-81.0
X132.0Y-82.0
X132.0Y-98.0
X132.0Y-99.0
X132.0Y-100.0
X132.0Y-101.0
X132.0Y-102.0
X132.0Y-103.0
X132.0Y-104.0
X132.0Y-105.0
X132.0Y-106.0
X138.8Y-29.89
X138.8Y-30.9
X138.8Y-31.9
X138.8Y-32.9
X138.8Y-33.9
X138.8Y-34.9
X139.8Y-29.89
X139.8Y-30.9
X139.8Y-31.9
X139.8Y-32.9
X139.8Y-33.9
X139.8Y-34.9
X139.89Y-57.75
X139.89Y-58.76
X139.89Y-59.76
X139.89Y-60.76
X139.89Y-61.76
X139.89Y-62.76
X140.5Y-102.49
X140.5Y-103.5
X140.5Y-104.5
X140.5Y-105.5
X140.5Y-106.5
X140.8Y-29.89
X140.8Y-30.9
X140.8Y-31.9
X140.8Y-32.9
X140.8Y-33.9
X140.8Y-34.9
X140.89Y-57.75
X140.89Y-58.76
X140.89Y-59.76
X140.89Y-60.76
X140.89Y-61.76
X140.89Y-62.76
X141.0Y-76.99
X141.0Y-77.99
X141.0Y-78.99
X141.0Y-79.99
X141.0Y-80.99
X141.0Y-81.99
X141.05Y-83.95
X141.05Y-84.96
X141.05Y-85.96
X141.05Y-86.96
X141.05Y-87.96
X141.05Y-88.96
X141.5Y-49.49
X141.5Y-50.5
X141.5Y-51.5
X141.5Y-52.5
X141.5Y-53.5
X141.5Y-54.5
X141.5Y-102.49
X141.5Y-103.5
X141.5Y-104.5
X141.5Y-105.5
X141.5Y-106.5
X141.8Y-29.89
X141.8Y-30.9
X141.8Y-31.9
X141.8Y-32.9
X141.8Y-33.9
X141.8Y-34.9
X141.89Y-57.75
X141.89Y-58.76
X141.89Y-59.76
X141.89Y-60.76
X141.89Y-61.76
X141.89Y-62.76
X142.0Y-76.99
X142.0Y-77.99
X142.0Y-78.99
X142.0Y-79.99
X142.0Y-80.99
X142.0Y-81.99
X142.05Y-83.95
X142.05Y-84.96
X142.05Y-85.96
X142.05Y-86.96
X142.05Y-87.96
X142.05Y-88.96
X142.5Y-49.49
X142.5Y-50.5
X142.5Y-51.5
X142.5Y-52.5
X142.5Y-53.5
X142.5Y-54.5
X142.5Y-102.49
X142.5Y-103.5
X142.5Y-104.5
X142.5Y-105.5
X142.5Y-106.5
X142.8Y-29.89
X142.8Y-30.9
X142.8Y-31.9
X142.8Y-32.9
X142.8Y-33.9
X142.8Y-34.9
X142.89Y-57.75
X142.89Y-58.76
X142.89Y-59.76
X142.89Y-60.76
X142.89Y-61.76
X142.89Y-62.76
X143.0Y-76.99
X143.0Y-77.99
X143.0Y-78.99
X143.0Y-79.99
X143.0Y-80.99
X143.0Y-81.99
X143.05Y-83.95
X143.05Y-84.96
X143.05Y-85.96
X143.05Y-86.96
X143.05Y-87.96
X143.05Y-88.96
X143.5Y-49.49
X143.5Y-50.5
X143.5Y-51.5
X143.5Y-52.5
X143.5Y-53.5
X143.5Y-54.5
X143.5Y-102.49
X143.5Y-103.5
X143.5Y-104.5
X143.5Y-105.5
X143.5Y-106.5
X143.8Y-29.89
X143.8Y-30.9
X143.8Y-31.9
X143.8Y-32.9
X143.8Y-33.9
X143.8Y-34.9
X143.89Y-57.75
X143.89Y-58.76
X143.89Y-59.76
X143.89Y-60.76
X143.89Y-61.76
X143.89Y-62.76
X144.0Y-76.99
X144.0Y-77.99
X144.0Y-78.99
X144.0Y-79.99
X144.0Y-80.99
X144.0Y-81.99
X144.05Y-83.95
X144.05Y-84.96
X144.05Y-85.96
X144.05Y-86.96
X144.05Y-87.96
X144.05Y-88.96
X144.5Y-49.49
X144.5Y-50.5
X144.5Y-51.5
X144.5Y-52.5
X144.5Y-53.5
X144.5Y-54.5
X144.5Y-102.49
X144.5Y-103.5
X144.5Y-104.5
X144.5Y-105.5
X144.5Y-106.5
X144.8Y-29.9
X144.8Y-30.9
X144.8Y-31.9
X144.8Y-32.9
X144.8Y-33.9
X144.8Y-34.9
X144.89Y-57.75
X144.89Y-58.76
X144.89Y-59.76
X144.89Y-60.76
X144.89Y-61.76
X144.89Y-62.76
X145.0Y-76.99
X145.0Y-77.99
X145.0Y-78.99
X145.0Y-79.99
X145.0Y-80.99
X145.0Y-81.99
X145.05Y-83.95
X145.05Y-84.96
X145.05Y-85.96
X145.05Y-86.96
X145.05Y-87.96
X145.05Y-88.96
X145.5Y-49.49
X145.5Y-50.5
X145.5Y-51.5
X145.5Y-52.5
X145.5Y-53.5
X145.5Y-54.5
X145.5Y-102.49
X145.5Y-103.5
X145.5Y-104.5
X145.5Y-105.5
X145.5Y-106.5
X145.8Y-29.9
X145.8Y-30.9
X145.8Y-31.9
X145.8Y-32.9
X145.8Y-33.9
X145.8Y-34.9
X145.89Y-57.76
X145.89Y-58.76
X145.89Y-59.76
X145.89Y-60.76
X145.89Y-61.76
X145.89Y-62.76
X146.0Y-76.99
X146.0Y-77.99
X146.0Y-78.99
X146.0Y-79.99
X146.0Y-80.99
X146.0Y-81.99
X146.05Y-83.95
X146.05Y-84.96
X146.05Y-85.96
X146.05Y-86.96
X146.05Y-87.96
X146.05Y-88.96
X146.3Y-41.325
X146.3Y-42.525
X146.3Y-69.325
X146.3Y-70.525
X146.5Y-49.49
X146.5Y-50.5
X146.5Y-51.5
X146.5Y-52.5
X146.5Y-53.5
X146.5Y-54.5
X146.5Y-102.5
X146.5Y-103.5
X146.5Y-104.5
X146.5Y-105.5
X146.5Y-106.5
X146.8Y-29.9
X146.8Y-30.9
X146.8Y-31.9
X146.8Y-32.9
X146.8Y-33.9
X146.8Y-34.9
X146.89Y-57.76
X146.89Y-58.76
X146.89Y-59.76
X146.89Y-60.76
X146.89Y-61.76
X146.89Y-62.76
X146.9Y-45.525
X146.9Y-73.525
X147.0Y-76.99
X147.0Y-77.99
X147.0Y-78.99
X147.0Y-79.99
X147.0Y-80.99
X147.0Y-81.99
X147.05Y-83.96
X147.05Y-84.96
X147.05Y-85.96
X147.05Y-86.96
X147.05Y-87.96
X147.05Y-88.96
X147.1Y-40.725
X147.1Y-41.925
X147.1Y-43.125
X147.1Y-68.725
X147.1Y-69.925
X147.1Y-71.125
X147.5Y-49.5
X147.5Y-50.5
X147.5Y-51.5
X147.5Y-52.5
X147.5Y-53.5
X147.5Y-54.5
X147.5Y-102.5
X147.5Y-103.5
X147.5Y-104.5
X147.5Y-105.5
X147.5Y-106.5
X147.8Y-29.9
X147.8Y-30.9
X147.8Y-31.9
X147.8Y-32.9
X147.8Y-33.9
X147.8Y-34.9
X147.89Y-57.76
X147.89Y-58.76
X147.89Y-59.76
X147.89Y-60.76
X147.89Y-61.76
X147.89Y-62.76
X147.9Y-45.525
X147.9Y-73.525
X148.0Y-76.99
X148.0Y-77.99
X148.0Y-78.99
X148.0Y-79.99
X148.0Y-80.99
X148.0Y-81.99
X148.05Y-83.96
X148.05Y-84.96
X148.05Y-85.96
X148.05Y-86.96
X148.05Y-87.96
X148.05Y-88.96
X148.5Y-49.5
X148.5Y-50.5
X148.5Y-51.5
X148.5Y-52.5
X148.5Y-53.5
X148.5Y-54.5
X148.5Y-102.5
X148.5Y-103.5
X148.5Y-104.5
X148.5Y-105.5
X148.5Y-106.5
X148.8Y-29.9
X148.8Y-30.9
X148.8Y-31.9
X148.8Y-32.9
X148.8Y-33.9
X148.8Y-34.9
X148.89Y-57.76
X148.89Y-58.76
X148.89Y-59.76
X148.89Y-60.76
X148.89Y-61.76
X148.89Y-62.76
X148.9Y-45.525
X148.9Y-73.525
X148.9Y-97.925
X148.9Y-99.525
X148.947Y-67.698
X148.965Y-66.554
X148.966Y-93.65
X148.975Y-38.525
X148.985Y-92.506
X149.0Y-39.65
X149.0Y-76.99
X149.0Y-77.99
X149.0Y-78.99
X149.0Y-79.99
X149.0Y-80.99
X149.0Y-81.99
X149.05Y-83.96
X149.05Y-84.96
X149.05Y-85.96
X149.05Y-86.96
X149.05Y-87.96
X149.05Y-88.96
X149.5Y-49.5
X149.5Y-50.5
X149.5Y-51.5
X149.5Y-52.5
X149.5Y-53.5
X149.5Y-54.5
X149.5Y-102.5
X149.5Y-103.5
X149.5Y-104.5
X149.5Y-105.5
X149.5Y-106.5
X149.8Y-29.9
X149.8Y-30.9
X149.8Y-31.9
X149.8Y-32.9
X149.8Y-33.9
X149.8Y-34.9
X149.89Y-57.76
X149.89Y-58.76
X149.89Y-59.76
X149.89Y-60.76
X149.89Y-61.76
X149.89Y-62.76
X149.9Y-45.525
X149.9Y-73.525
X149.9Y-97.925
X149.9Y-99.525
X149.998Y-67.643
X150.0Y-69.125
X150.0Y-76.99
X150.0Y-77.99
X150.0Y-78.99
X150.0Y-79.99
X150.0Y-80.99
X150.0Y-81.99
X150.0Y-95.125
X150.002Y-93.614
X150.004Y-39.609
X150.017Y-66.499
X150.021Y-92.47
X150.023Y-38.465
X150.05Y-83.96
X150.05Y-84.96
X150.05Y-85.96
X150.05Y-86.96
X150.05Y-87.96
X150.05Y-88.96
X150.5Y-49.5
X150.5Y-50.5
X150.5Y-51.5
X150.5Y-52.5
X150.5Y-53.5
X150.5Y-54.5
X150.5Y-102.5
X150.5Y-103.5
X150.5Y-104.5
X150.5Y-105.5
X150.5Y-106.5
X150.8Y-29.9
X150.8Y-30.9
X150.8Y-31.9
X150.8Y-32.9
X150.8Y-33.9
X150.8Y-34.9
X150.89Y-57.76
X150.89Y-58.76
X150.89Y-59.76
X150.89Y-60.76
X150.89Y-61.76
X150.89Y-62.76
X151.0Y-76.99
X151.0Y-77.99
X151.0Y-78.99
X151.0Y-79.99
X151.0Y-80.99
X151.0Y-81.99
X151.05Y-83.96
X151.05Y-84.96
X151.05Y-85.96
X151.05Y-86.96
X151.05Y-87.96
X151.05Y-88.96
X151.5Y-49.5
X151.5Y-50.5
X151.5Y-51.5
X151.5Y-52.5
X151.5Y-53.5
X151.5Y-54.5
X151.5Y-102.5
X151.5Y-103.5
X151.5Y-104.5
X151.5Y-105.5
X151.5Y-106.5
X151.8Y-29.9
X151.8Y-30.9
X151.8Y-31.9
X151.8Y-32.9
X151.8Y-33.9
X151.8Y-34.9
X151.89Y-57.76
X151.89Y-58.76
X151.89Y-59.76
X151.89Y-60.76
X151.89Y-61.76
X151.89Y-62.76
X152.0Y-76.99
X152.0Y-77.99
X152.0Y-78.99
X152.0Y-79.99
X152.0Y-80.99
X152.0Y-81.99
X152.05Y-83.96
X152.05Y-84.96
X152.05Y-85.96
X152.05Y-86.96
X152.05Y-87.96
X152.05Y-88.96
X152.5Y-49.5
X152.5Y-50.5
X152.5Y-51.5
X152.5Y-52.5
X152.5Y-53.5
X152.5Y-54.5
X152.5Y-102.5
X152.5Y-103.5
X152.5Y-104.5
X152.5Y-105.5
X152.5Y-106.5
X152.8Y-29.9
X152.8Y-30.9
X152.8Y-31.9
X152.8Y-32.9
X152.8Y-33.9
X152.8Y-34.9
X152.89Y-57.76
X152.89Y-58.76
X152.89Y-59.76
X152.89Y-60.76
X152.89Y-61.76
X152.89Y-62.76
X153.0Y-76.99
X153.0Y-77.99
X153.0Y-78.99
X153.0Y-79.99
X153.0Y-80.99
X153.0Y-81.99
X153.05Y-83.96
X153.05Y-84.96
X153.05Y-85.96
X153.05Y-86.96
X153.05Y-87.96
X153.05Y-88.96
X153.5Y-49.5
X153.5Y-50.5
X153.5Y-51.5
X153.5Y-52.5
X153.5Y-53.5
X153.5Y-54.5
X153.5Y-102.5
X153.5Y-103.5
X153.5Y-104.5
X153.5Y-105.5
X153.5Y-106.5
X153.8Y-29.9
X153.8Y-30.9
X153.8Y-31.9
X153.8Y-32.9
X153.8Y-33.9
X153.8Y-34.9
X153.89Y-57.76
X153.89Y-58.76
X153.89Y-59.76
X153.89Y-60.76
X153.89Y-61.76
X153.89Y-62.76
X154.0Y-76.99
X154.0Y-77.99
X154.0Y-78.99
X154.0Y-79.99
X154.0Y-80.99
X154.0Y-81.99
X154.05Y-83.96
X154.05Y-84.96
X154.05Y-85.96
X154.05Y-86.96
X154.05Y-87.96
X154.05Y-88.96
X154.5Y-49.5
X154.5Y-50.5
X154.5Y-51.5
X154.5Y-52.5
X154.5Y-53.5
X154.5Y-54.5
X154.5Y-102.5
X154.5Y-103.5
X154.5Y-104.5
X154.5Y-105.5
X154.5Y-106.5
X154.8Y-29.9
X154.8Y-30.9
X154.8Y-31.9
X154.8Y-32.9
X154.8Y-33.9
X154.8Y-34.9
X154.89Y-57.76
X154.89Y-58.76
X154.89Y-59.76
X154.89Y-60.76
X154.89Y-61.76
X154.89Y-62.76
X155.0Y-76.99
X155.0Y-77.99
X155.0Y-78.99
X155.0Y-79.99
X155.0Y-80.99
X155.0Y-81.99
X155.05Y-83.96
X155.05Y-84.96
X155.05Y-85.96
X155.05Y-86.96
X155.05Y-87.96
X155.05Y-88.96
X155.5Y-49.5
X155.5Y-50.5
X155.5Y-51.5
X155.5Y-52.5
X155.5Y-53.5
X155.5Y-54.5
X155.5Y-102.5
X155.5Y-103.5
X155.5Y-104.5
X155.5Y-105.5
X155.5Y-106.5
X155.8Y-29.9
X155.8Y-30.9
X155.8Y-31.9
X155.8Y-32.9
X155.8Y-33.9
X155.8Y-34.9
X155.89Y-57.76
X155.89Y-58.76
X155.89Y-59.76
X155.89Y-60.76
X155.89Y-61.76
X155.89Y-62.76
X156.0Y-76.99
X156.0Y-77.99
X156.0Y-78.99
X156.0Y-79.99
X156.0Y-80.99
X156.0Y-81.99
X156.05Y-83.96
X156.05Y-84.96
X156.05Y-85.96
X156.05Y-86.96
X156.05Y-87.96
X156.05Y-88.96
X156.5Y-49.5
X156.5Y-50.5
X156.5Y-51.5
X156.5Y-52.5
X156.5Y-53.5
X156.5Y-54.5
X156.5Y-102.5
X156.5Y-103.5
X156.5Y-104.5
X156.5Y-105.5
X156.5Y-106.5
X156.8Y-29.9
X156.8Y-30.9
X156.8Y-31.9
X156.8Y-32.9
X156.8Y-33.9
X156.8Y-34.9
X156.89Y-57.76
X156.89Y-58.76
X156.89Y-59.76
X156.89Y-60.76
X156.89Y-61.76
X156.89Y-62.76
X157.0Y-76.99
X157.0Y-77.99
X157.0Y-78.99
X157.0Y-79.99
X157.0Y-80.99
X157.0Y-81.99
X157.05Y-83.96
X157.05Y-84.96
X157.05Y-85.96
X157.05Y-86.96
X157.05Y-87.96
X157.05Y-88.96
X157.5Y-49.5
X157.5Y-50.5
X157.5Y-51.5
X157.5Y-52.5
X157.5Y-53.5
X157.5Y-54.5
X157.5Y-102.5
X157.5Y-103.5
X157.5Y-104.5
X157.5Y-105.5
X157.5Y-106.5
X157.8Y-29.9
X157.8Y-30.9
X157.8Y-31.9
X157.8Y-32.9
X157.8Y-33.9
X157.8Y-34.9
X157.89Y-57.76
X157.89Y-58.76
X157.89Y-59.76
X157.89Y-60.76
X157.89Y-61.76
X157.89Y-62.76
X158.0Y-76.99
X158.0Y-77.99
X158.0Y-78.99
X158.0Y-79.99
X158.0Y-80.99
X158.0Y-81.99
X158.05Y-83.96
X158.05Y-84.96
X158.05Y-85.96
X158.05Y-86.96
X158.05Y-87.96
X158.05Y-88.96
X158.176Y-67.614
X158.187Y-39.632
X158.188Y-93.619
X158.195Y-66.47
X158.206Y-38.488
X158.207Y-92.475
X158.5Y-49.5
X158.5Y-50.5
X158.5Y-51.5
X158.5Y-52.5
X158.5Y-53.5
X158.5Y-54.5
X158.5Y-102.5
X158.5Y-103.5
X158.5Y-104.5
X158.5Y-105.5
X158.5Y-106.5
X158.8Y-29.9
X158.8Y-30.9
X158.8Y-31.9
X158.8Y-32.9
X158.8Y-33.9
X158.8Y-34.9
X158.89Y-57.76
X158.89Y-58.76
X158.89Y-59.76
X158.89Y-60.76
X158.89Y-61.76
X158.89Y-62.76
X159.0Y-76.99
X159.0Y-77.99
X159.0Y-78.99
X159.0Y-79.99
X159.0Y-80.99
X159.0Y-81.99
X159.05Y-83.96
X159.05Y-84.96
X159.05Y-85.96
X159.05Y-86.96
X159.05Y-87.96
X159.05Y-88.96
X159.2Y-38.525
X159.2Y-39.625
X159.201Y-67.642
X159.22Y-66.498
X159.234Y-92.509
X159.252Y-93.654
X159.5Y-49.5
X159.5Y-50.5
X159.5Y-51.5
X159.5Y-52.5
X159.5Y-53.5
X159.5Y-54.5
X159.5Y-102.5
X159.5Y-103.5
X159.5Y-104.5
X159.5Y-105.5
X159.5Y-106.5
X159.8Y-29.9
X159.8Y-30.9
X159.8Y-31.9
X159.8Y-32.9
X159.8Y-33.9
X159.8Y-34.9
X159.89Y-57.76
X159.89Y-58.76
X159.89Y-59.76
X159.89Y-60.76
X159.89Y-61.76
X159.89Y-62.76
X160.0Y-76.99
X160.0Y-77.99
X160.0Y-78.99
X160.0Y-79.99
X160.0Y-80.99
X160.0Y-81.99
X160.05Y-83.96
X160.05Y-84.96
X160.05Y-85.96
X160.05Y-86.96
X160.05Y-87.96
X160.05Y-88.96
X160.096Y-97.917
X160.1Y-43.925
X160.1Y-45.125
X160.1Y-46.325
X160.1Y-71.925
X160.1Y-73.125
X160.1Y-74.325
X160.1Y-99.125
X160.1Y-100.325
X160.5Y-49.5
X160.5Y-50.5
X160.5Y-51.5
X160.5Y-52.5
X160.5Y-53.5
X160.5Y-54.5
X160.5Y-102.5
X160.5Y-103.5
X160.5Y-104.5
X160.5Y-105.5
X160.5Y-106.5
X160.8Y-29.9
X160.8Y-30.9
X160.8Y-31.9
X160.8Y-32.9
X160.8Y-33.9
X160.8Y-34.9
X160.89Y-57.76
X160.89Y-58.76
X160.89Y-59.76
X160.89Y-60.76
X160.89Y-61.76
X160.89Y-62.76
X161.0Y-76.99
X161.0Y-77.99
X161.0Y-78.99
X161.0Y-79.99
X161.0Y-80.99
X161.0Y-81.99
X161.05Y-83.96
X161.05Y-84.96
X161.05Y-85.96
X161.05Y-86.96
X161.05Y-87.96
X161.05Y-88.96
X161.1Y-44.525
X161.1Y-45.725
X161.1Y-46.925
X161.1Y-72.525
X161.1Y-73.725
X161.1Y-74.925
X161.1Y-98.525
X161.1Y-99.725
X161.1Y-100.925
X161.5Y-49.5
X161.5Y-50.5
X161.5Y-51.5
X161.5Y-52.5
X161.5Y-53.5
X161.5Y-54.5
X161.5Y-102.5
X161.5Y-103.5
X161.5Y-104.5
X161.5Y-105.5
X161.5Y-106.5
X161.8Y-29.9
X161.8Y-30.9
X161.8Y-31.9
X161.8Y-32.9
X161.8Y-33.9
X161.8Y-34.9
X161.89Y-57.76
X161.89Y-58.76
X161.89Y-59.76
X161.89Y-60.76
X161.89Y-61.76
X161.89Y-62.76
X162.0Y-76.99
X162.0Y-77.99
X162.0Y-78.99
X162.0Y-79.99
X162.0Y-80.99
X162.0Y-81.99
X162.05Y-83.96
X162.05Y-84.96
X162.05Y-85.96
X162.05Y-86.96
X162.05Y-87.96
X162.05Y-88.96
X162.5Y-49.5
X162.5Y-50.5
X162.5Y-51.5
X162.5Y-52.5
X162.5Y-53.5
X162.5Y-54.5
X162.5Y-102.5
X162.5Y-103.5
X162.5Y-104.5
X162.5Y-105.5
X162.5Y-106.5
X162.8Y-29.9
X162.8Y-30.9
X162.8Y-31.9
X162.8Y-32.9
X162.8Y-33.9
X162.8Y-34.9
X162.89Y-57.76
X162.89Y-58.76
X162.89Y-59.76
X162.89Y-60.76
X162.89Y-61.76
X162.89Y-62.76
X163.0Y-76.99
X163.0Y-77.99
X163.0Y-78.99
X163.0Y-79.99
X163.0Y-80.99
X163.0Y-81.99
X163.05Y-83.96
X163.05Y-84.96
X163.05Y-85.96
X163.05Y-86.96
X163.05Y-87.96
X163.05Y-88.96
X163.5Y-49.5
X163.5Y-50.5
X163.5Y-51.5
X163.5Y-52.5
X163.5Y-53.5
X163.5Y-54.5
X163.5Y-102.5
X163.5Y-103.5
X163.5Y-104.5
X163.5Y-105.5
X163.5Y-106.5
X163.8Y-29.9
X163.8Y-30.9
X163.8Y-31.9
X163.8Y-32.9
X163.8Y-33.9
X163.8Y-34.9
X163.89Y-57.76
X163.89Y-58.76
X163.89Y-59.76
X163.89Y-60.76
X163.89Y-61.76
X163.89Y-62.76
X164.0Y-76.99
X164.0Y-77.99
X164.0Y-78.99
X164.0Y-79.99
X164.0Y-80.99
X164.0Y-81.99
X164.05Y-83.96
X164.05Y-84.96
X164.05Y-85.96
X164.05Y-86.96
X164.05Y-87.96
X164.05Y-88.96
X164.5Y-49.5
X164.5Y-50.5
X164.5Y-51.5
X164.5Y-52.5
X164.5Y-53.5
X164.5Y-54.5
X164.5Y-102.5
X164.5Y-103.5
X164.5Y-104.5
X164.5Y-105.5
X164.5Y-106.5
X164.8Y-29.9
X164.8Y-30.9
X164.8Y-31.9
X164.8Y-32.9
X164.8Y-33.9
X164.8Y-34.9
X164.89Y-57.76
X164.89Y-58.76
X164.89Y-59.76
X164.89Y-60.76
X164.89Y-61.76
X164.89Y-62.76
X165.0Y-76.99
X165.0Y-77.99
X165.0Y-78.99
X165.0Y-79.99
X165.0Y-80.99
X165.0Y-81.99
X165.05Y-83.96
X165.05Y-84.96
X165.05Y-85.96
X165.05Y-86.96
X165.05Y-87.96
X165.05Y-88.96
X165.5Y-49.5
X165.5Y-50.5
X165.5Y-51.5
X165.5Y-52.5
X165.5Y-53.5
X165.5Y-54.5
X165.5Y-102.5
X165.5Y-103.5
X165.5Y-104.5
X165.5Y-105.5
X165.5Y-106.5
X165.8Y-29.9
X165.8Y-30.9
X165.8Y-31.9
X165.8Y-32.9
X165.8Y-33.9
X165.8Y-34.9
X165.89Y-57.76
X165.89Y-58.76
X165.89Y-59.76
X165.89Y-60.76
X165.89Y-61.76
X165.89Y-62.76
X166.0Y-76.99
X166.0Y-77.99
X166.0Y-78.99
X166.0Y-79.99
X166.0Y-80.99
X166.0Y-81.99
X166.05Y-83.96
X166.05Y-84.96
X166.05Y-85.96
X166.05Y-86.96
X166.05Y-87.96
X166.05Y-88.96
X166.5Y-49.5
X166.5Y-50.5
X166.5Y-51.5
X166.5Y-52.5
X166.5Y-53.5
X166.5Y-54.5
X166.5Y-102.5
X166.5Y-103.5
X166.5Y-104.5
X166.5Y-105.5
X166.5Y-106.5
X166.8Y-29.9
X166.8Y-30.9
X166.8Y-31.9
X166.8Y-32.9
X166.8Y-33.9
X166.8Y-34.9
X166.89Y-57.76
X166.89Y-58.76
X166.89Y-59.76
X166.89Y-60.76
X166.89Y-61.76
X166.89Y-62.76
X167.0Y-76.99
X167.0Y-77.99
X167.0Y-78.99
X167.0Y-79.99
X167.0Y-80.99
X167.0Y-81.99
X167.05Y-83.96
X167.05Y-84.96
X167.05Y-85.96
X167.05Y-86.96
X167.05Y-87.96
X167.05Y-88.96
X167.5Y-49.5
X167.5Y-50.5
X167.5Y-51.5
X167.5Y-52.5
X167.5Y-53.5
X167.5Y-54.5
X167.5Y-102.5
X167.5Y-103.5
X167.5Y-104.5
X167.5Y-105.5
X167.5Y-106.5
X167.8Y-29.9
X167.8Y-30.9
X167.8Y-31.9
X167.8Y-32.9
X167.8Y-33.9
X167.8Y-34.9
X167.89Y-57.76
X167.89Y-58.76
X167.89Y-59.76
X167.89Y-60.76
X167.89Y-61.76
X167.89Y-62.76
X168.0Y-76.99
X168.0Y-77.99
X168.0Y-78.99
X168.0Y-79.99
X168.0Y-80.99
X168.0Y-81.99
X168.05Y-83.96
X168.05Y-84.96
X168.05Y-85.96
X168.05Y-86.96
X168.05Y-87.96
X168.05Y-88.96
X168.5Y-49.5
X168.5Y-50.5
X168.5Y-51.5
X168.5Y-52.5
X168.5Y-53.5
X168.5Y-54.5
X168.5Y-102.5
X168.5Y-103.5
X168.5Y-104.5
X168.5Y-105.5
X168.5Y-106.5
X168.8Y-29.9
X168.8Y-30.9
X168.8Y-31.9
X168.8Y-32.9
X168.8Y-33.9
X168.8Y-34.9
X168.89Y-57.76
X168.89Y-58.76
X168.89Y-59.76
X168.89Y-60.76
X168.89Y-61.76
X168.89Y-62.76
X169.0Y-76.99
X169.0Y-77.99
X169.0Y-78.99
X169.0Y-79.99
X169.0Y-80.99
X169.0Y-81.99
X169.05Y-83.96
X169.05Y-84.96
X169.05Y-85.96
X169.05Y-86.96
X169.05Y-87.96
X169.05Y-88.96
X169.5Y-49.5
X169.5Y-50.5
X169.5Y-51.5
X169.5Y-52.5
X169.5Y-53.5
X169.5Y-54.5
X169.5Y-102.5
X169.5Y-103.5
X169.5Y-104.5
X169.5Y-105.5
X169.5Y-106.5
X169.8Y-29.9
X169.8Y-30.9
X169.8Y-31.9
X169.8Y-32.9
X169.8Y-33.9
X169.8Y-34.9
X169.89Y-57.76
X169.89Y-58.76
X169.89Y-59.76
X169.89Y-60.76
X169.89Y-61.76
X169.89Y-62.76
X170.0Y-76.99
X170.0Y-77.99
X170.0Y-78.99
X170.0Y-79.99
X170.0Y-80.99
X170.0Y-81.99
X170.05Y-83.96
X170.05Y-84.96
X170.05Y-85.96
X170.05Y-86.96
X170.05Y-87.96
X170.05Y-88.96
X170.5Y-49.5
X170.5Y-50.5
X170.5Y-51.5
X170.5Y-52.5
X170.5Y-53.5
X170.5Y-54.5
X170.5Y-102.5
X170.5Y-103.5
X170.5Y-104.5
X170.5Y-105.5
X170.5Y-106.5
X170.8Y-29.89
X170.8Y-30.9
X170.8Y-31.9
X170.8Y-32.9
X170.8Y-33.9
X170.8Y-34.9
X170.89Y-57.76
X170.89Y-58.76
X170.89Y-59.76
X170.89Y-60.76
X170.89Y-61.76
X170.89Y-62.76
X171.0Y-76.99
X171.0Y-77.99
X171.0Y-78.99
X171.0Y-79.99
X171.0Y-80.99
X171.0Y-81.99
X171.05Y-83.96
X171.05Y-84.96
X171.05Y-85.96
X171.05Y-86.96
X171.05Y-87.96
X171.05Y-88.96
X171.5Y-49.5
X171.5Y-50.5
X171.5Y-51.5
X171.5Y-52.5
X171.5Y-53.5
X171.5Y-54.5
X171.5Y-102.5
X171.5Y-103.5
X171.5Y-104.5
X171.5Y-105.5
X171.5Y-106.5
X171.8Y-29.89
X171.8Y-30.9
X171.8Y-31.9
X171.8Y-32.9
X171.8Y-33.9
X171.8Y-34.9
X171.89Y-57.75
X171.89Y-58.76
X171.89Y-59.76
X171.89Y-60.76
X171.89Y-61.76
X171.89Y-62.76
X172.0Y-76.99
X172.0Y-77.99
X172.0Y-78.99
X172.0Y-79.99
X172.0Y-80.99
X172.0Y-81.99
X172.05Y-83.96
X172.05Y-84.96
X172.05Y-85.96
X172.05Y-86.96
X172.05Y-87.96
X172.05Y-88.96
X172.5Y-49.5
X172.5Y-50.5
X172.5Y-51.5
X172.5Y-52.5
X172.5Y-53.5
X172.5Y-54.5
X172.5Y-102.49
X172.5Y-103.5
X172.5Y-104.5
X172.5Y-105.5
X172.5Y-106.5
X172.8Y-29.89
X172.8Y-30.9
X172.8Y-31.9
X172.8Y-32.9
X172.8Y-33.9
X172.8Y-34.9
X172.89Y-57.75
X172.89Y-58.76
X172.89Y-59.76
X172.89Y-60.76
X172.89Y-61.76
X172.89Y-62.76
X173.0Y-76.99
X173.0Y-77.99
X173.0Y-78.99
X173.0Y-79.99
X173.0Y-80.99
X173.0Y-81.99
X173.05Y-83.95
X173.05Y-84.96
X173.05Y-85.96
X173.05Y-86.96
X173.05Y-87.96
X173.05Y-88.96
X173.5Y-49.49
X173.5Y-50.5
X173.5Y-51.5
X173.5Y-52.5
X173.5Y-53.5
X173.5Y-54.5
X173.5Y-102.49
X173.5Y-103.5
X173.5Y-104.5
X173.5Y-105.5
X173.5Y-106.5
X173.8Y-29.89
X173.8Y-30.9
X173.8Y-31.9
X173.8Y-32.9
X173.8Y-33.9
X173.8Y-34.9
X173.89Y-57.75
X173.89Y-58.76
X173.89Y-59.76
X173.89Y-60.76
X173.89Y-61.76
X173.89Y-62.76
X174.0Y-76.99
X174.0Y-77.99
X174.0Y-78.99
X174.0Y-79.99
X174.0Y-80.99
X174.0Y-81.99
X174.05Y-83.95
X174.05Y-84.96
X174.05Y-85.96
X174.05Y-86.96
X174.05Y-87.96
X174.05Y-88.96
X174.5Y-49.49
X174.5Y-50.5
X174.5Y-51.5
X174.5Y-52.5
X174.5Y-53.5
X174.5Y-54.5
X174.5Y-102.49
X174.5Y-103.5
X174.5Y-104.5
X174.5Y-105.5
X174.5Y-106.5
X174.8Y-29.89
X174.8Y-30.9
X174.8Y-31.9
X174.8Y-32.9
X174.8Y-33.9
X174.8Y-34.9
X174.89Y-57.75
X174.89Y-58.76
X174.89Y-59.76
X174.89Y-60.76
X174.89Y-61.76
X174.89Y-62.76
X175.0Y-76.99
X175.0Y-77.99
X175.0Y-78.99
X175.0Y-79.99
X175.0Y-80.99
X175.0Y-81.99
X175.05Y-83.95
X175.05Y-84.96
X175.05Y-85.96
X175.05Y-86.96
X175.05Y-87.96
X175.05Y-88.96
X175.1Y-44.525
X175.1Y-45.725
X175.1Y-46.925
X175.1Y-72.525
X175.1Y-73.725
X175.1Y-74.925
X175.1Y-98.525
X175.1Y-99.725
X175.1Y-100.925
X175.5Y-49.49
X175.5Y-50.5
X175.5Y-51.5
X175.5Y-52.5
X175.5Y-53.5
X175.5Y-54.5
X175.5Y-102.49
X175.5Y-103.5
X175.5Y-104.5
X175.5Y-105.5
X175.5Y-106.5
X175.8Y-29.89
X175.8Y-30.9
X175.8Y-31.9
X175.8Y-32.9
X175.8Y-33.9
X175.8Y-34.9
X175.89Y-57.75
X175.89Y-58.76
X175.89Y-59.76
X175.89Y-60.76
X175.89Y-61.76
X175.89Y-62.76
X176.0Y-76.99
X176.0Y-77.99
X176.0Y-78.99
X176.0Y-79.99
X176.0Y-80.99
X176.0Y-81.99
X176.05Y-83.95
X176.05Y-84.96
X176.05Y-85.96
X176.05Y-86.96
X176.05Y-87.96
X176.05Y-88.96
X176.1Y-45.125
X176.1Y-46.325
X176.1Y-73.125
X176.1Y-74.325
X176.1Y-99.125
X176.1Y-100.325
X176.5Y-49.49
X176.5Y-50.5
X176.5Y-51.5
X176.5Y-52.5
X176.5Y-53.5
X176.5Y-54.5
X176.5Y-102.49
X176.5Y-103.5
X176.5Y-104.5
X176.5Y-105.5
X176.5Y-106.5
X176.8Y-29.9
X176.8Y-30.9
X176.8Y-31.9
X176.8Y-32.9
X176.8Y-33.9
X176.8Y-34.9
X176.89Y-57.75
X176.89Y-58.76
X176.89Y-59.76
X176.89Y-60.76
X176.89Y-61.76
X176.89Y-62.76
X176.95Y-38.5
X176.97Y-93.654
X176.972Y-67.656
X176.975Y-39.625
X176.975Y-92.5
X176.989Y-92.51
X176.991Y-66.512
X177.0Y-76.99
X177.0Y-77.99
X177.0Y-78.99
X177.0Y-79.99
X177.0Y-80.99
X177.0Y-82.0
X177.0Y-93.625
X177.05Y-83.95
X177.05Y-84.96
X177.05Y-85.96
X177.05Y-86.96
X177.05Y-87.96
X177.05Y-88.96
X177.5Y-49.49
X177.5Y-50.5
X177.5Y-51.5
X177.5Y-52.5
X177.5Y-53.5
X177.5Y-54.5
X177.5Y-102.49
X177.5Y-103.5
X177.5Y-104.5
X177.5Y-105.5
X177.5Y-106.5
X177.8Y-29.9
X177.8Y-30.9
X177.8Y-31.9
X177.8Y-32.9
X177.8Y-33.9
X177.8Y-34.9
X177.89Y-57.76
X177.89Y-58.76
X177.89Y-59.76
X177.89Y-60.76
X177.89Y-61.76
X177.89Y-62.76
X177.984Y-39.624
X177.991Y-93.607
X178.0Y-76.99
X178.0Y-77.99
X178.0Y-78.99
X178.0Y-79.99
X178.0Y-80.99
X178.0Y-82.0
X178.003Y-38.48
X178.007Y-67.624
X178.01Y-92.463
X178.026Y-66.48
X178.05Y-83.95
X178.05Y-84.96
X178.05Y-85.96
X178.05Y-86.96
X178.05Y-87.96
X178.05Y-88.96
X178.5Y-49.49
X178.5Y-50.5
X178.5Y-51.5
X178.5Y-52.5
X178.5Y-53.5
X178.5Y-54.5
X178.5Y-102.5
X178.5Y-103.5
X178.5Y-104.5
X178.5Y-105.5
X178.5Y-106.5
X178.8Y-29.9
X178.8Y-30.9
X178.8Y-31.9
X178.8Y-32.9
X178.8Y-33.9
X178.8Y-34.9
X178.89Y-57.76
X178.89Y-58.76
X178.89Y-59.76
X178.89Y-60.76
X178.89Y-61.76
X178.89Y-62.76
X179.0Y-76.99
X179.0Y-77.99
X179.0Y-78.99
X179.0Y-79.99
X179.0Y-80.99
X179.0Y-82.0
X179.05Y-83.96
X179.05Y-84.96
X179.05Y-85.96
X179.05Y-86.96
X179.05Y-87.96
X179.05Y-88.96
X179.5Y-49.5
X179.5Y-50.5
X179.5Y-51.5
X179.5Y-52.5
X179.5Y-53.5
X179.5Y-54.5
X179.5Y-102.5
X179.5Y-103.5
X179.5Y-104.5
X179.5Y-105.5
X179.5Y-106.5
X179.8Y-29.9
X179.8Y-30.9
X179.8Y-31.9
X179.8Y-32.9
X179.8Y-33.9
X179.8Y-34.9
X179.89Y-57.76
X179.89Y-58.76
X179.89Y-59.76
X179.89Y-60.76
X179.89Y-61.76
X179.89Y-62.76
X180.0Y-76.99
X180.0Y-77.99
X180.0Y-78.99
X180.0Y-79.99
X180.0Y-80.99
X180.0Y-82.0
X180.05Y-83.96
X180.05Y-84.96
X180.05Y-85.96
X180.05Y-86.96
X180.05Y-87.96
X180.05Y-88.96
X180.5Y-49.5
X180.5Y-50.5
X180.5Y-51.5
X180.5Y-52.5
X180.5Y-53.5
X180.5Y-54.5
X180.5Y-102.5
X180.5Y-103.5
X180.5Y-104.5
X180.5Y-105.5
X180.5Y-106.5
X180.8Y-29.9
X180.8Y-30.9
X180.8Y-31.9
X180.8Y-32.9
X180.8Y-33.9
X180.8Y-34.9
X180.89Y-57.76
X180.89Y-58.76
X180.89Y-59.76
X180.89Y-60.76
X180.89Y-61.76
X180.89Y-62.76
X181.0Y-76.99
X181.0Y-77.99
X181.0Y-78.99
X181.0Y-79.99
X181.0Y-80.99
X181.0Y-82.0
X181.05Y-83.96
X181.05Y-84.96
X181.05Y-85.96
X181.05Y-86.96
X181.05Y-87.96
X181.05Y-88.96
X181.5Y-49.5
X181.5Y-50.5
X181.5Y-51.5
X181.5Y-52.5
X181.5Y-53.5
X181.5Y-54.5
X181.5Y-102.5
X181.5Y-103.5
X181.5Y-104.5
X181.5Y-105.5
X181.5Y-106.5
X181.8Y-29.9
X181.8Y-30.9
X181.8Y-31.9
X181.8Y-32.9
X181.8Y-33.9
X181.8Y-34.9
X181.89Y-57.76
X181.89Y-58.76
X181.89Y-59.76
X181.89Y-60.76
X181.89Y-61.76
X181.89Y-62.76
X182.0Y-76.99
X182.0Y-77.99
X182.0Y-78.99
X182.0Y-79.99
X182.0Y-80.99
X182.0Y-82.0
X182.05Y-83.96
X182.05Y-84.96
X182.05Y-85.96
X182.05Y-86.96
X182.05Y-87.96
X182.05Y-88.96
X182.5Y-49.5
X182.5Y-50.5
X182.5Y-51.5
X182.5Y-52.5
X182.5Y-53.5
X182.5Y-54.5
X182.5Y-102.5
X182.5Y-103.5
X182.5Y-104.5
X182.5Y-105.5
X182.5Y-106.5
X182.8Y-29.9
X182.8Y-30.9
X182.8Y-31.9
X182.8Y-32.9
X182.8Y-33.9
X182.8Y-34.9
X182.89Y-57.76
X182.89Y-58.76
X182.89Y-59.76
X182.89Y-60.76
X182.89Y-61.76
X182.89Y-62.76
X183.0Y-76.99
X183.0Y-77.99
X183.0Y-78.99
X183.0Y-79.99
X183.0Y-80.99
X183.0Y-81.99
X183.05Y-83.96
X183.05Y-84.96
X183.05Y-85.96
X183.05Y-86.96
X183.05Y-87.96
X183.05Y-88.96
X183.5Y-49.5
X183.5Y-50.5
X183.5Y-51.5
X183.5Y-52.5
X183.5Y-53.5
X183.5Y-54.5
X183.5Y-102.5
X183.5Y-103.5
X183.5Y-104.5
X183.5Y-105.5
X183.5Y-106.5
X183.8Y-29.9
X183.8Y-30.9
X183.8Y-31.9
X183.8Y-32.9
X183.8Y-33.9
X183.8Y-34.9
X183.89Y-57.76
X183.89Y-58.76
X183.89Y-59.76
X183.89Y-60.76
X183.89Y-61.76
X183.89Y-62.76
X184.0Y-76.99
X184.0Y-77.99
X184.0Y-78.99
X184.0Y-79.99
X184.0Y-80.99
X184.0Y-81.99
X184.05Y-83.96
X184.05Y-84.96
X184.05Y-85.96
X184.05Y-86.96
X184.05Y-87.96
X184.05Y-88.96
X184.5Y-49.5
X184.5Y-50.5
X184.5Y-51.5
X184.5Y-52.5
X184.5Y-53.5
X184.5Y-54.5
X184.5Y-102.5
X184.5Y-103.5
X184.5Y-104.5
X184.5Y-105.5
X184.5Y-106.5
X184.8Y-29.9
X184.8Y-30.9
X184.8Y-31.9
X184.8Y-32.9
X184.8Y-33.9
X184.8Y-34.9
X184.89Y-57.76
X184.89Y-58.76
X184.89Y-59.76
X184.89Y-60.76
X184.89Y-61.76
X184.89Y-62.76
X185.0Y-76.99
X185.0Y-77.99
X185.0Y-78.99
X185.0Y-79.99
X185.0Y-80.99
X185.0Y-81.99
X185.05Y-83.96
X185.05Y-84.96
X185.05Y-85.96
X185.05Y-86.96
X185.05Y-87.96
X185.05Y-88.96
X185.5Y-49.5
X185.5Y-50.5
X185.5Y-51.5
X185.5Y-52.5
X185.5Y-53.5
X185.5Y-54.5
X185.5Y-102.5
X185.5Y-103.5
X185.5Y-104.5
X185.5Y-105.5
X185.5Y-106.5
X185.8Y-29.9
X185.8Y-30.9
X185.8Y-31.9
X185.8Y-32.9
X185.8Y-33.9
X185.8Y-34.9
X185.89Y-57.76
X185.89Y-58.76
X185.89Y-59.76
X185.89Y-60.76
X185.89Y-61.76
X185.89Y-62.76
X186.0Y-76.99
X186.0Y-77.99
X186.0Y-78.99
X186.0Y-79.99
X186.0Y-80.99
X186.0Y-81.99
X186.05Y-83.96
X186.05Y-84.96
X186.05Y-85.96
X186.05Y-86.96
X186.05Y-87.96
X186.05Y-88.96
X186.16Y-67.628
X186.17Y-39.6
X186.177Y-93.612
X186.179Y-66.484
X186.189Y-38.456
X186.196Y-92.468
X186.5Y-49.5
X186.5Y-50.5
X186.5Y-51.5
X186.5Y-52.5
X186.5Y-53.5
X186.5Y-54.5
X186.5Y-102.5
X186.5Y-103.5
X186.5Y-104.5
X186.5Y-105.5
X186.5Y-106.5
X186.8Y-29.9
X186.8Y-30.9
X186.8Y-31.9
X186.8Y-32.9
X186.8Y-33.9
X186.8Y-34.9
X186.89Y-57.76
X186.89Y-58.76
X186.89Y-59.76
X186.89Y-60.76
X186.89Y-61.76
X186.89Y-62.76
X187.0Y-76.99
X187.0Y-77.99
X187.0Y-78.99
X187.0Y-79.99
X187.0Y-80.99
X187.0Y-81.99
X187.05Y-83.96
X187.05Y-84.96
X187.05Y-85.96
X187.05Y-86.96
X187.05Y-87.96
X187.05Y-88.96
X187.175Y-38.5
X187.2Y-39.625
X187.21Y-67.611
X187.212Y-92.509
X187.229Y-66.467
X187.23Y-93.653
X187.5Y-49.5
X187.5Y-50.5
X187.5Y-51.5
X187.5Y-52.5
X187.5Y-53.5
X187.5Y-54.5
X187.5Y-102.5
X187.5Y-103.5
X187.5Y-104.5
X187.5Y-105.5
X187.5Y-106.5
X187.8Y-29.9
X187.8Y-30.9
X187.8Y-31.9
X187.8Y-32.9
X187.8Y-33.9
X187.8Y-34.9
X187.89Y-57.76
X187.89Y-58.76
X187.89Y-59.76
X187.89Y-60.76
X187.89Y-61.76
X187.89Y-62.76
X188.0Y-76.99
X188.0Y-77.99
X188.0Y-78.99
X188.0Y-79.99
X188.0Y-80.99
X188.0Y-81.99
X188.05Y-83.96
X188.05Y-84.96
X188.05Y-85.96
X188.05Y-86.96
X188.05Y-87.96
X188.05Y-88.96
X188.087Y-97.917
X188.1Y-43.925
X188.1Y-45.125
X188.1Y-46.325
X188.1Y-74.3
X188.1Y-99.125
X188.1Y-100.325
X188.125Y-73.1
X188.15Y-71.9
X188.5Y-49.5
X188.5Y-50.5
X188.5Y-51.5
X188.5Y-52.5
X188.5Y-53.5
X188.5Y-54.5
X188.5Y-102.5
X188.5Y-103.5
X188.5Y-104.5
X188.5Y-105.5
X188.5Y-106.5
X188.8Y-29.9
X188.8Y-30.9
X188.8Y-31.9
X188.8Y-32.9
X188.8Y-33.9
X188.8Y-34.9
X188.89Y-57.76
X188.89Y-58.76
X188.89Y-59.76
X188.89Y-60.76
X188.89Y-61.76
X188.89Y-62.76
X189.0Y-76.99
X189.0Y-77.99
X189.0Y-78.99
X189.0Y-79.99
X189.0Y-80.99
X189.0Y-81.99
X189.05Y-83.96
X189.05Y-84.96
X189.05Y-85.96
X189.05Y-86.96
X189.05Y-87.96
X189.05Y-88.96
X189.1Y-44.525
X189.1Y-45.725
X189.1Y-46.925
X189.1Y-72.525
X189.1Y-73.725
X189.1Y-74.925
X189.1Y-98.525
X189.1Y-99.725
X189.1Y-100.925
X189.5Y-49.5
X189.5Y-50.5
X189.5Y-51.5
X189.5Y-52.5
X189.5Y-53.5
X189.5Y-54.5
X189.5Y-102.5
X189.5Y-103.5
X189.5Y-104.5
X189.5Y-105.5
X189.5Y-106.5
X189.8Y-29.9
X189.8Y-30.9
X189.8Y-31.9
X189.8Y-32.9
X189.8Y-33.9
X189.8Y-34.9
X189.89Y-57.76
X189.89Y-58.76
X189.89Y-59.76
X189.89Y-60.76
X189.89Y-61.76
X189.89Y-62.76
X190.0Y-76.99
X190.0Y-77.99
X190.0Y-78.99
X190.0Y-79.99
X190.0Y-80.99
X190.0Y-81.99
X190.05Y-83.96
X190.05Y-84.96
X190.05Y-85.96
X190.05Y-86.96
X190.05Y-87.96
X190.05Y-88.96
X190.5Y-49.5
X190.5Y-50.5
X190.5Y-51.5
X190.5Y-52.5
X190.5Y-53.5
X190.5Y-54.5
X190.5Y-102.5
X190.5Y-103.5
X190.5Y-104.5
X190.5Y-105.5
X190.5Y-106.5
X190.8Y-29.9
X190.8Y-30.9
X190.8Y-31.9
X190.8Y-32.9
X190.8Y-33.9
X190.8Y-34.9
X190.89Y-57.76
X190.89Y-58.76
X190.89Y-59.76
X190.89Y-60.76
X190.89Y-61.76
X190.89Y-62.76
X191.0Y-76.99
X191.0Y-77.99
X191.0Y-78.99
X191.0Y-79.99
X191.0Y-80.99
X191.0Y-81.99
X191.05Y-83.96
X191.05Y-84.96
X191.05Y-85.96
X191.05Y-86.96
X191.05Y-87.96
X191.05Y-88.96
X191.5Y-49.5
X191.5Y-50.5
X191.5Y-51.5
X191.5Y-52.5
X191.5Y-53.5
X191.5Y-54.5
X191.5Y-102.5
X191.5Y-103.5
X191.5Y-104.5
X191.5Y-105.5
X191.5Y-106.5
X191.8Y-29.9
X191.8Y-30.9
X191.8Y-31.9
X191.8Y-32.9
X191.8Y-33.9
X191.8Y-34.9
X191.89Y-57.76
X191.89Y-58.76
X191.89Y-59.76
X191.89Y-60.76
X191.89Y-61.76
X191.89Y-62.76
X192.0Y-76.99
X192.0Y-77.99
X192.0Y-78.99
X192.0Y-79.99
X192.0Y-80.99
X192.0Y-81.99
X192.05Y-83.96
X192.05Y-84.96
X192.05Y-85.96
X192.05Y-86.96
X192.05Y-87.96
X192.05Y-88.96
X192.5Y-49.5
X192.5Y-50.5
X192.5Y-51.5
X192.5Y-52.5
X192.5Y-53.5
X192.5Y-54.5
X192.5Y-102.5
X192.5Y-103.5
X192.5Y-104.5
X192.5Y-105.5
X192.5Y-106.5
X192.8Y-29.9
X192.8Y-30.9
X192.8Y-31.9
X192.8Y-32.9
X192.8Y-33.9
X192.8Y-34.9
X192.89Y-57.76
X192.89Y-58.76
X192.89Y-59.76
X192.89Y-60.76
X192.89Y-61.76
X192.89Y-62.76
X193.0Y-76.99
X193.0Y-77.99
X193.0Y-78.99
X193.0Y-79.99
X193.0Y-80.99
X193.0Y-81.99
X193.05Y-83.96
X193.05Y-84.96
X193.05Y-85.96
X193.05Y-86.96
X193.05Y-87.96
X193.05Y-88.96
X193.5Y-49.5
X193.5Y-50.5
X193.5Y-51.5
X193.5Y-52.5
X193.5Y-53.5
X193.5Y-54.5
X193.5Y-102.5
X193.5Y-103.5
X193.5Y-104.5
X193.5Y-105.5
X193.5Y-106.5
X193.8Y-29.9
X193.8Y-30.9
X193.8Y-31.9
X193.8Y-32.9
X193.8Y-33.9
X193.8Y-34.9
X193.89Y-57.76
X193.89Y-58.76
X193.89Y-59.76
X193.89Y-60.76
X193.89Y-61.76
X193.89Y-62.76
X194.0Y-76.99
X194.0Y-77.99
X194.0Y-78.99
X194.0Y-79.99
X194.0Y-80.99
X194.0Y-81.99
X194.05Y-83.96
X194.05Y-84.96
X194.05Y-85.96
X194.05Y-86.96
X194.05Y-87.96
X194.05Y-88.96
X194.5Y-49.5
X194.5Y-50.5
X194.5Y-51.5
X194.5Y-52.5
X194.5Y-53.5
X194.5Y-54.5
X194.5Y-102.5
X194.5Y-103.5
X194.5Y-104.5
X194.5Y-105.5
X194.5Y-106.5
X194.8Y-29.9
X194.8Y-30.9
X194.8Y-31.9
X194.8Y-32.9
X194.8Y-33.9
X194.8Y-34.9
X194.89Y-57.76
X194.89Y-58.76
X194.89Y-59.76
X194.89Y-60.76
X194.89Y-61.76
X194.89Y-62.76
X195.0Y-76.99
X195.0Y-77.99
X195.0Y-78.99
X195.0Y-79.99
X195.0Y-80.99
X195.0Y-81.99
X195.05Y-83.96
X195.05Y-84.96
X195.05Y-85.96
X195.05Y-86.96
X195.05Y-87.96
X195.05Y-88.96
X195.5Y-49.5
X195.5Y-50.5
X195.5Y-51.5
X195.5Y-52.5
X195.5Y-53.5
X195.5Y-54.5
X195.5Y-102.5
X195.5Y-103.5
X195.5Y-104.5
X195.5Y-105.5
X195.5Y-106.5
X195.8Y-29.9
X195.8Y-30.9
X195.8Y-31.9
X195.8Y-32.9
X195.8Y-33.9
X195.8Y-34.9
X195.89Y-57.76
X195.89Y-58.76
X195.89Y-59.76
X195.89Y-60.76
X195.89Y-61.76
X195.89Y-62.76
X196.0Y-76.99
X196.0Y-77.99
X196.0Y-78.99
X196.0Y-79.99
X196.0Y-80.99
X196.0Y-81.99
X196.05Y-83.96
X196.05Y-84.96
X196.05Y-85.96
X196.05Y-86.96
X196.05Y-87.96
X196.05Y-88.96
X196.5Y-49.5
X196.5Y-50.5
X196.5Y-51.5
X196.5Y-52.5
X196.5Y-53.5
X196.5Y-54.5
X196.5Y-102.5
X196.5Y-103.5
X196.5Y-104.5
X196.5Y-105.5
X196.5Y-106.5
X196.8Y-29.9
X196.8Y-30.9
X196.8Y-31.9
X196.8Y-32.9
X196.8Y-33.9
X196.8Y-34.9
X196.89Y-57.76
X196.89Y-58.76
X196.89Y-59.76
X196.89Y-60.76
X196.89Y-61.76
X196.89Y-62.76
X197.0Y-76.99
X197.0Y-77.99
X197.0Y-78.99
X197.0Y-79.99
X197.0Y-80.99
X197.0Y-81.99
X197.05Y-83.96
X197.05Y-84.96
X197.05Y-85.96
X197.05Y-86.96
X197.05Y-87.96
X197.05Y-88.96
X197.5Y-49.5
X197.5Y-50.5
X197.5Y-51.5
X197.5Y-52.5
X197.5Y-53.5
X197.5Y-54.5
X197.5Y-102.5
X197.5Y-103.5
X197.5Y-104.5
X197.5Y-105.5
X197.5Y-106.5
X197.8Y-29.9
X197.8Y-30.9
X197.8Y-31.9
X197.8Y-32.9
X197.8Y-33.9
X197.8Y-34.9
X197.89Y-57.76
X197.89Y-58.76
X197.89Y-59.76
X197.89Y-60.76
X197.89Y-61.76
X197.89Y-62.76
X198.0Y-76.99
X198.0Y-77.99
X198.0Y-78.99
X198.0Y-79.99
X198.0Y-80.99
X198.0Y-81.99
X198.05Y-83.96
X198.05Y-84.96
X198.05Y-85.96
X198.05Y-86.96
X198.05Y-87.96
X198.05Y-88.96
X198.5Y-49.5
X198.5Y-50.5
X198.5Y-51.5
X198.5Y-52.5
X198.5Y-53.5
X198.5Y-54.5
X198.5Y-102.5
X198.5Y-103.5
X198.5Y-104.5
X198.5Y-105.5
X198.5Y-106.5
X198.8Y-29.9
X198.8Y-30.9
X198.8Y-31.9
X198.8Y-32.9
X198.8Y-33.9
X198.8Y-34.9
X198.89Y-57.76
X198.89Y-58.76
X198.89Y-59.76
X198.89Y-60.76
X198.89Y-61.76
X198.89Y-62.76
X199.0Y-76.99
X199.0Y-77.99
X199.0Y-78.99
X199.0Y-79.99
X199.0Y-80.99
X199.0Y-81.99
X199.05Y-83.96
X199.05Y-84.96
X199.05Y-85.96
X199.05Y-86.96
X199.05Y-87.96
X199.05Y-88.96
X199.5Y-49.5
X199.5Y-50.5
X199.5Y-51.5
X199.5Y-52.5
X199.5Y-53.5
X199.5Y-54.5
X199.5Y-102.5
X199.5Y-103.5
X199.5Y-104.5
X199.5Y-105.5
X199.5Y-106.5
X199.8Y-29.9
X199.8Y-30.9
X199.8Y-31.9
X199.8Y-32.9
X199.8Y-33.9
X199.8Y-34.9
X199.89Y-57.76
X199.89Y-58.76
X199.89Y-59.76
X199.89Y-60.76
X199.89Y-61.76
X199.89Y-62.76
X200.0Y-76.99
X200.0Y-77.99
X200.0Y-78.99
X200.0Y-79.99
X200.0Y-80.99
X200.0Y-81.99
X200.05Y-83.96
X200.05Y-84.96
X200.05Y-85.96
X200.05Y-86.96
X200.05Y-87.96
X200.05Y-88.96
X200.5Y-49.5
X200.5Y-50.5
X200.5Y-51.5
X200.5Y-52.5
X200.5Y-53.5
X200.5Y-54.5
X200.5Y-102.5
X200.5Y-103.5
X200.5Y-104.5
X200.5Y-105.5
X200.5Y-106.5
X200.8Y-29.9
X200.8Y-30.9
X200.8Y-31.9
X200.8Y-32.9
X200.8Y-33.9
X200.8Y-34.9
X200.89Y-57.76
X200.89Y-58.76
X200.89Y-59.76
X200.89Y-60.76
X200.89Y-61.76
X200.89Y-62.76
X201.0Y-76.99
X201.0Y-77.99
X201.0Y-78.99
X201.0Y-79.99
X201.0Y-80.99
X201.0Y-81.99
X201.05Y-83.96
X201.05Y-84.96
X201.05Y-85.96
X201.05Y-86.96
X201.05Y-87.96
X201.05Y-88.96
X201.5Y-49.5
X201.5Y-50.5
X201.5Y-51.5
X201.5Y-52.5
X201.5Y-53.5
X201.5Y-54.5
X201.5Y-102.5
X201.5Y-103.5
X201.5Y-104.5
X201.5Y-105.5
X201.5Y-106.5
X201.8Y-29.9
X201.8Y-30.9
X201.8Y-31.9
X201.8Y-32.9
X201.8Y-33.9
X201.8Y-34.9
X201.89Y-57.76
X201.89Y-58.76
X201.89Y-59.76
X201.89Y-60.76
X201.89Y-61.76
X201.89Y-62.76
X202.0Y-76.99
X202.0Y-77.99
X202.0Y-78.99
X202.0Y-79.99
X202.0Y-80.99
X202.0Y-81.99
X202.05Y-83.96
X202.05Y-84.96
X202.05Y-85.96
X202.05Y-86.96
X202.05Y-87.96
X202.05Y-88.96
X202.5Y-49.5
X202.5Y-50.5
X202.5Y-51.5
X202.5Y-52.5
X202.5Y-53.5
X202.5Y-54.5
X202.5Y-102.5
X202.5Y-103.5
X202.5Y-104.5
X202.5Y-105.5
X202.5Y-106.5
X202.8Y-29.9
X202.8Y-30.9
X202.8Y-31.9
X202.8Y-32.9
X202.8Y-33.9
X202.8Y-34.9
X202.89Y-57.76
X202.89Y-58.76
X202.89Y-59.76
X202.89Y-60.76
X202.89Y-61.76
X202.89Y-62.76
X203.0Y-76.99
X203.0Y-77.99
X203.0Y-78.99
X203.0Y-79.99
X203.0Y-80.99
X203.0Y-81.99
X203.05Y-83.96
X203.05Y-84.96
X203.05Y-85.96
X203.05Y-86.96
X203.05Y-87.96
X203.05Y-88.96
X203.098Y-74.955
X203.1Y-44.525
X203.1Y-45.725
X203.1Y-46.925
X203.1Y-72.525
X203.1Y-73.725
X203.1Y-98.525
X203.1Y-99.725
X203.1Y-100.95
X203.5Y-49.5
X203.5Y-50.5
X203.5Y-51.5
X203.5Y-52.5
X203.5Y-53.5
X203.5Y-54.5
X203.5Y-102.5
X203.5Y-103.5
X203.5Y-104.5
X203.5Y-105.5
X203.5Y-106.5
X203.8Y-29.9
X203.8Y-30.9
X203.8Y-31.9
X203.8Y-32.9
X203.8Y-33.9
X203.8Y-34.9
X203.89Y-57.76
X203.89Y-58.76
X203.89Y-59.76
X203.89Y-60.76
X203.89Y-61.76
X203.89Y-62.76
X204.0Y-76.99
X204.0Y-77.99
X204.0Y-78.99
X204.0Y-79.99
X204.0Y-80.99
X204.0Y-81.99
X204.05Y-83.96
X204.05Y-84.96
X204.05Y-85.96
X204.05Y-86.96
X204.05Y-87.96
X204.05Y-88.96
X204.1Y-45.125
X204.1Y-46.325
X204.1Y-73.125
X204.1Y-74.322
X204.1Y-99.125
X204.1Y-100.325
X204.5Y-49.5
X204.5Y-50.5
X204.5Y-51.5
X204.5Y-52.5
X204.5Y-53.5
X204.5Y-54.5
X204.5Y-102.5
X204.5Y-103.5
X204.5Y-104.5
X204.5Y-105.5
X204.5Y-106.5
X204.8Y-29.9
X204.8Y-30.9
X204.8Y-31.9
X204.8Y-32.9
X204.8Y-33.9
X204.8Y-34.9
X204.89Y-57.76
X204.89Y-58.76
X204.89Y-59.76
X204.89Y-60.76
X204.89Y-61.76
X204.89Y-62.76
X204.962Y-93.654
X204.975Y-67.65
X204.98Y-92.509
X204.994Y-66.506
X205.0Y-39.625
X205.0Y-76.99
X205.0Y-77.99
X205.0Y-78.99
X205.0Y-79.99
X205.0Y-80.99
X205.0Y-81.99
X205.0Y-92.525
X205.0Y-93.625
X205.019Y-38.481
X205.05Y-83.96
X205.05Y-84.96
X205.05Y-85.96
X205.05Y-86.96
X205.05Y-87.96
X205.05Y-88.96
X205.5Y-49.5
X205.5Y-50.5
X205.5Y-51.5
X205.5Y-52.5
X205.5Y-53.5
X205.5Y-54.5
X205.5Y-102.5
X205.5Y-103.5
X205.5Y-104.5
X205.5Y-105.5
X205.5Y-106.5
X205.8Y-29.9
X205.8Y-30.9
X205.8Y-31.9
X205.8Y-32.9
X205.8Y-33.9
X205.8Y-34.9
X205.89Y-57.76
X205.89Y-58.76
X205.89Y-59.76
X205.89Y-60.76
X205.89Y-61.76
X205.89Y-62.76
X206.0Y-76.99
X206.0Y-77.99
X206.0Y-78.99
X206.0Y-79.99
X206.0Y-80.99
X206.0Y-81.99
X206.002Y-67.622
X206.005Y-93.607
X206.014Y-39.617
X206.021Y-66.478
X206.024Y-92.463
X206.033Y-38.473
X206.05Y-83.96
X206.05Y-84.96
X206.05Y-85.96
X206.05Y-86.96
X206.05Y-87.96
X206.05Y-88.96
X206.5Y-49.5
X206.5Y-50.5
X206.5Y-51.5
X206.5Y-52.5
X206.5Y-53.5
X206.5Y-54.5
X206.5Y-102.5
X206.5Y-103.5
X206.5Y-104.5
X206.5Y-105.5
X206.5Y-106.5
X206.8Y-29.9
X206.8Y-30.9
X206.8Y-31.9
X206.8Y-32.9
X206.8Y-33.9
X206.8Y-34.9
X206.89Y-57.76
X206.89Y-58.76
X206.89Y-59.76
X206.89Y-60.76
X206.89Y-61.76
X206.89Y-62.76
X207.0Y-76.99
X207.0Y-77.99
X207.0Y-78.99
X207.0Y-79.99
X207.0Y-80.99
X207.0Y-81.99
X207.05Y-83.96
X207.05Y-84.96
X207.05Y-85.96
X207.05Y-86.96
X207.05Y-87.96
X207.05Y-88.96
X207.5Y-49.5
X207.5Y-50.5
X207.5Y-51.5
X207.5Y-52.5
X207.5Y-53.5
X207.5Y-54.5
X207.5Y-102.5
X207.5Y-103.5
X207.5Y-104.5
X207.5Y-105.5
X207.5Y-106.5
X207.8Y-29.9
X207.8Y-30.9
X207.8Y-31.9
X207.8Y-32.9
X207.8Y-33.9
X207.8Y-34.9
X207.89Y-57.76
X207.89Y-58.76
X207.89Y-59.76
X207.89Y-60.76
X207.89Y-61.76
X207.89Y-62.76
X208.0Y-76.99
X208.0Y-77.99
X208.0Y-78.99
X208.0Y-79.99
X208.0Y-80.99
X208.0Y-81.99
X208.05Y-83.96
X208.05Y-84.96
X208.05Y-85.96
X208.05Y-86.96
X208.05Y-87.96
X208.05Y-88.96
X208.5Y-49.5
X208.5Y-50.5
X208.5Y-51.5
X208.5Y-52.5
X208.5Y-53.5
X208.5Y-54.5
X208.5Y-102.5
X208.5Y-103.5
X208.5Y-104.5
X208.5Y-105.5
X208.5Y-106.5
X208.8Y-29.9
X208.8Y-30.9
X208.8Y-31.9
X208.8Y-32.9
X208.8Y-33.9
X208.8Y-34.9
X208.89Y-57.76
X208.89Y-58.76
X208.89Y-59.76
X208.89Y-60.76
X208.89Y-61.76
X208.89Y-62.76
X209.0Y-76.99
X209.0Y-77.99
X209.0Y-78.99
X209.0Y-79.99
X209.0Y-80.99
X209.0Y-82.0
X209.05Y-83.96
X209.05Y-84.96
X209.05Y-85.96
X209.05Y-86.96
X209.05Y-87.96
X209.05Y-88.96
X209.5Y-49.5
X209.5Y-50.5
X209.5Y-51.5
X209.5Y-52.5
X209.5Y-53.5
X209.5Y-54.5
X209.5Y-102.5
X209.5Y-103.5
X209.5Y-104.5
X209.5Y-105.5
X209.5Y-106.5
X209.8Y-29.9
X209.8Y-30.9
X209.8Y-31.9
X209.8Y-32.9
X209.8Y-33.9
X209.8Y-34.9
X209.89Y-57.76
X209.89Y-58.76
X209.89Y-59.76
X209.89Y-60.76
X209.89Y-61.76
X209.89Y-62.76
X210.0Y-76.99
X210.0Y-77.99
X210.0Y-78.99
X210.0Y-79.99
X210.0Y-80.99
X210.0Y-82.0
X210.05Y-83.96
X210.05Y-84.96
X210.05Y-85.96
X210.05Y-86.96
X210.05Y-87.96
X210.05Y-88.96
X210.5Y-49.5
X210.5Y-50.5
X210.5Y-51.5
X210.5Y-52.5
X210.5Y-53.5
X210.5Y-54.5
X210.5Y-102.5
X210.5Y-103.5
X210.5Y-104.5
X210.5Y-105.5
X210.5Y-106.5
X210.8Y-29.9
X210.8Y-30.9
X210.8Y-31.9
X210.8Y-32.9
X210.8Y-33.9
X210.8Y-34.9
X210.89Y-57.76
X210.89Y-58.76
X210.89Y-59.76
X210.89Y-60.76
X210.89Y-61.76
X210.89Y-62.76
X211.0Y-76.99
X211.0Y-77.99
X211.0Y-78.99
X211.0Y-79.99
X211.0Y-80.99
X211.0Y-82.0
X211.05Y-83.96
X211.05Y-84.96
X211.05Y-85.96
X211.05Y-86.96
X211.05Y-87.96
X211.05Y-88.96
X211.5Y-49.5
X211.5Y-50.5
X211.5Y-51.5
X211.5Y-52.5
X211.5Y-53.5
X211.5Y-54.5
X211.5Y-102.5
X211.5Y-103.5
X211.5Y-104.5
X211.5Y-105.5
X211.5Y-106.5
X211.8Y-29.9
X211.8Y-30.9
X211.8Y-31.9
X211.8Y-32.9
X211.8Y-33.9
X211.8Y-34.9
X211.89Y-57.76
X211.89Y-58.76
X211.89Y-59.76
X211.89Y-60.76
X211.89Y-61.76
X211.89Y-62.76
X212.0Y-76.99
X212.0Y-77.99
X212.0Y-78.99
X212.0Y-79.99
X212.0Y-80.99
X212.0Y-82.0
X212.05Y-83.96
X212.05Y-84.96
X212.05Y-85.96
X212.05Y-86.96
X212.05Y-87.96
X212.05Y-88.96
X212.5Y-49.5
X212.5Y-50.5
X212.5Y-51.5
X212.5Y-52.5
X212.5Y-53.5
X212.5Y-54.5
X212.5Y-102.5
X212.5Y-103.5
X212.5Y-104.5
X212.5Y-105.5
X212.5Y-106.5
X212.89Y-57.76
X212.89Y-58.76
X212.89Y-59.76
X212.89Y-60.76
X212.89Y-61.76
X212.89Y-62.76
X213.0Y-76.99
X213.0Y-77.99
X213.0Y-78.99
X213.0Y-79.99
X213.0Y-80.99
X213.0Y-82.0
X213.05Y-83.96
X213.05Y-84.96
X213.05Y-85.96
X213.05Y-86.96
X213.05Y-87.96
X213.05Y-88.96
X213.5Y-49.5
X213.5Y-50.5
X213.5Y-51.5
X213.5Y-52.5
X213.5Y-53.5
X213.5Y-54.5
X213.5Y-102.5
X213.5Y-103.5
X213.5Y-104.5
X213.5Y-105.5
X213.5Y-106.5
X214.0Y-76.99
X214.0Y-77.99
X214.0Y-78.99
X214.0Y-79.99
X214.0Y-80.99
X214.0Y-82.0
X214.05Y-83.96
X214.05Y-84.96
X214.05Y-85.96
X214.05Y-86.96
X214.05Y-87.96
X214.05Y-88.96
X214.161Y-67.615
X214.18Y-66.471
X214.191Y-93.612
X214.21Y-92.468
X214.375Y-96.75
X214.4Y-41.525
X214.4Y-42.725
X214.4Y-43.925
X214.4Y-45.125
X214.4Y-46.325
X214.4Y-69.525
X214.4Y-70.725
X214.4Y-71.925
X214.4Y-73.125
X214.4Y-74.325
X214.4Y-95.525
X214.4Y-97.925
X214.4Y-99.125
X214.4Y-100.325
X214.5Y-49.5
X214.5Y-50.5
X214.5Y-51.5
X214.5Y-52.5
X214.5Y-53.5
X214.5Y-54.5
X214.884Y-39.809
X214.891Y-38.5
X215.2Y-66.55
X215.2Y-67.625
X215.2Y-92.55
X215.2Y-93.625
X215.3Y-96.15
X215.5Y-42.125
X215.5Y-43.325
X215.5Y-44.525
X215.5Y-45.725
X215.5Y-70.125
X215.5Y-71.325
X215.5Y-72.525
X215.5Y-73.725
X215.5Y-97.325
X215.5Y-98.525
X215.5Y-99.725
X215.5Y-100.925
X215.884Y-39.809
X215.891Y-38.5
X216.2Y-66.525
X216.2Y-67.625
X216.2Y-92.5
X216.2Y-93.65
X216.5Y-33.95
X216.7Y-31.625
X216.7Y-33.025
X216.891Y-38.5
X216.916Y-39.809
X217.175Y-67.625
X217.2Y-66.525
X217.2Y-92.525
X217.225Y-93.625
X217.325Y-33.95
X218.2Y-106.625
X218.225Y-107.525
X219.1Y-102.425
X220.0Y-102.425
X220.091Y-43.155
X220.85Y-43.15
X221.1Y-31.9
X222.575Y-31.9
X224.0Y-54.4
X224.0Y-55.925
X224.0Y-68.925
X224.0Y-70.3
X224.0Y-80.625
X224.0Y-81.925
X224.0Y-94.925
X224.0Y-96.2
X225.405Y-39.785
X225.5Y-54.49
X225.5Y-55.5
X225.5Y-56.5
X225.5Y-57.5
X225.5Y-58.5
X225.5Y-59.5
X225.5Y-60.49
X225.5Y-61.5
X225.5Y-62.5
X225.5Y-63.5
X225.5Y-64.5
X225.5Y-65.5
X225.5Y-66.5
X225.5Y-67.51
X225.5Y-68.51
X225.5Y-69.51
X225.5Y-70.51
X225.5Y-71.51
X225.5Y-72.48
X225.5Y-73.49
X225.5Y-74.49
X225.5Y-75.49
X225.5Y-76.49
X225.5Y-77.49
X225.5Y-78.48
X225.5Y-79.49
X225.5Y-80.49
X225.5Y-81.49
X225.5Y-82.49
X225.5Y-83.49
X225.5Y-84.49
X225.5Y-85.5
X225.5Y-86.5
X225.5Y-87.5
X225.5Y-88.5
X225.5Y-89.5
X225.5Y-90.48
X225.5Y-91.49
X225.5Y-92.49
X225.5Y-93.49
X225.5Y-94.49
X225.5Y-95.49
X225.5Y-96.48
X225.5Y-97.49
X225.5Y-98.49
X225.5Y-99.49
X225.5Y-100.49
X225.5Y-101.49
X225.5Y-102.49
X225.5Y-103.5
X225.5Y-104.5
X225.5Y-105.5
X225.5Y-106.5
X225.5Y-107.5
X226.255Y-40.639
X226.5Y-54.49
X226.5Y-55.5
X226.5Y-56.5
X226.5Y-57.5
X226.5Y-58.5
X226.5Y-59.5
X226.5Y-60.49
X226.5Y-61.5
X226.5Y-62.5
X226.5Y-63.5
X226.5Y-64.5
X226.5Y-65.5
X226.5Y-66.5
X226.5Y-67.51
X226.5Y-68.51
X226.5Y-69.51
X226.5Y-70.51
X226.5Y-71.51
X226.5Y-72.48
X226.5Y-73.49
X226.5Y-74.49
X226.5Y-75.49
X226.5Y-76.49
X226.5Y-77.49
X226.5Y-78.48
X226.5Y-79.49
X226.5Y-80.49
X226.5Y-81.49
X226.5Y-82.49
X226.5Y-83.49
X226.5Y-84.49
X226.5Y-85.5
X226.5Y-86.5
X226.5Y-87.5
X226.5Y-88.5
X226.5Y-89.5
X226.5Y-90.48
X226.5Y-91.49
X226.5Y-92.49
X226.5Y-93.49
X226.5Y-94.49
X226.5Y-95.49
X226.5Y-96.48
X226.5Y-97.49
X226.5Y-98.49
X226.5Y-99.49
X226.5Y-100.49
X226.5Y-101.49
X226.5Y-102.49
X226.5Y-103.5
X226.5Y-104.5
X226.5Y-105.5
X226.5Y-106.5
X226.5Y-107.5
X227.5Y-54.49
X227.5Y-55.5
X227.5Y-56.5
X227.5Y-57.5
X227.5Y-58.5
X227.5Y-59.5
X227.5Y-60.49
X227.5Y-61.5
X227.5Y-62.5
X227.5Y-63.5
X227.5Y-64.5
X227.5Y-65.5
X227.5Y-66.5
X227.5Y-67.51
X227.5Y-68.51
X227.5Y-69.51
X227.5Y-70.51
X227.5Y-71.51
X227.5Y-72.48
X227.5Y-73.49
X227.5Y-74.49
X227.5Y-75.49
X227.5Y-76.49
X227.5Y-77.49
X227.5Y-78.48
X227.5Y-79.49
X227.5Y-80.49
X227.5Y-81.49
X227.5Y-82.49
X227.5Y-83.49
X227.5Y-84.49
X227.5Y-85.5
X227.5Y-86.5
X227.5Y-87.5
X227.5Y-88.5
X227.5Y-89.5
X227.5Y-90.48
X227.5Y-91.49
X227.5Y-92.49
X227.5Y-93.49
X227.5Y-94.49
X227.5Y-95.49
X227.5Y-96.48
X227.5Y-97.49
X227.5Y-98.49
X227.5Y-99.49
X227.5Y-100.49
X227.5Y-101.49
X227.5Y-102.49
X227.5Y-103.5
X227.5Y-104.5
X227.5Y-105.5
X227.5Y-106.5
X227.5Y-107.5
T2
X66.28Y-55.037
X66.286Y-64.643
X68.82Y-55.037
X68.826Y-64.643
X71.36Y-55.037
X71.366Y-64.643
X73.9Y-55.037
X73.906Y-64.643
T3
X64.016Y-79.986
X64.016Y-82.526
X66.556Y-79.986
X66.556Y-82.526
X69.096Y-79.986
X69.096Y-82.526
T4
X66.275Y-72.025
X68.815Y-72.025
X71.355Y-72.025
X73.895Y-72.025
X81.7Y-81.815
X81.7Y-84.355
X81.7Y-86.895
X81.7Y-89.435
T5
X67.85Y-32.88
X72.35Y-32.88
T6
X66.501Y-35.42
X73.699Y-35.42
T7
X87.597Y-81.509
X87.6Y-58.5
X92.597Y-81.509
X92.6Y-58.5
T8
X168.1Y-42.5
X168.1Y-94.525
X168.125Y-68.525
X196.1Y-42.5
X196.1Y-68.525
X196.1Y-94.525
T9
X86.587Y-34.524
X86.6Y-101.525
X133.106Y-34.528
M30
