%TF.GenerationSoftware,KiCad,Pcbnew,9.0.5*%
%TF.CreationDate,2025-10-28T20:55:24+05:00*%
%TF.ProjectId,LV08,4c563038-2e6b-4696-9361-645f70636258,rev?*%
%TF.SameCoordinates,Original*%
%TF.FileFunction,Paste,Top*%
%TF.FilePolarity,Positive*%
%FSLAX46Y46*%
G04 Gerber Fmt 4.6, Leading zero omitted, Abs format (unit mm)*
G04 Created by KiCad (PCBNEW 9.0.5) date 2025-10-28 20:55:24*
%MOMM*%
%LPD*%
G01*
G04 APERTURE LIST*
%ADD10C,0.001000*%
%ADD11R,0.540005X0.790094*%
%ADD12R,0.792000X0.221000*%
%ADD13R,1.350013X1.410008*%
%ADD14R,1.300000X0.700000*%
%ADD15R,0.540005X0.565659*%
%ADD16R,3.500000X1.200000*%
%ADD17R,0.565659X0.540005*%
%ADD18R,0.600000X0.250013*%
%ADD19R,0.250013X0.600000*%
%ADD20R,3.300000X5.300000*%
%ADD21R,1.072009X0.532004*%
%ADD22R,0.790094X0.540005*%
%ADD23R,1.500000X0.900000*%
%ADD24R,0.900000X1.500000*%
%ADD25R,0.900000X0.900000*%
%ADD26R,3.825019X12.350013*%
%ADD27R,3.825019X12.320015*%
%ADD28R,1.410008X1.350013*%
%ADD29R,0.864008X0.806477*%
%ADD30R,1.300000X3.700000*%
G04 APERTURE END LIST*
%TO.C,U17*%
D10*
X153563460Y-73438846D02*
X152363460Y-73438846D01*
X152363460Y-72648846D01*
X153563460Y-72648846D01*
X153563460Y-73438846D01*
G36*
X153563460Y-73438846D02*
G01*
X152363460Y-73438846D01*
X152363460Y-72648846D01*
X153563460Y-72648846D01*
X153563460Y-73438846D01*
G37*
X153593460Y-69768846D02*
X152393460Y-69768846D01*
X152393460Y-68978846D01*
X153593460Y-68978846D01*
X153593460Y-69768846D01*
G36*
X153593460Y-69768846D02*
G01*
X152393460Y-69768846D01*
X152393460Y-68978846D01*
X153593460Y-68978846D01*
X153593460Y-69768846D01*
G37*
X153613460Y-68328846D02*
X152413460Y-68328846D01*
X152413460Y-67538846D01*
X153613460Y-67538846D01*
X153613460Y-68328846D01*
G36*
X153613460Y-68328846D02*
G01*
X152413460Y-68328846D01*
X152413460Y-67538846D01*
X153613460Y-67538846D01*
X153613460Y-68328846D01*
G37*
X153613460Y-71358846D02*
X152413460Y-71358846D01*
X152413460Y-70568846D01*
X153613460Y-70568846D01*
X153613460Y-71358846D01*
G36*
X153613460Y-71358846D02*
G01*
X152413460Y-71358846D01*
X152413460Y-70568846D01*
X153613460Y-70568846D01*
X153613460Y-71358846D01*
G37*
X155693460Y-73433846D02*
X154493460Y-73433846D01*
X154493460Y-72643846D01*
X155693460Y-72643846D01*
X155693460Y-73433846D01*
G36*
X155693460Y-73433846D02*
G01*
X154493460Y-73433846D01*
X154493460Y-72643846D01*
X155693460Y-72643846D01*
X155693460Y-73433846D01*
G37*
X155723460Y-69763846D02*
X154523460Y-69763846D01*
X154523460Y-68973846D01*
X155723460Y-68973846D01*
X155723460Y-69763846D01*
G36*
X155723460Y-69763846D02*
G01*
X154523460Y-69763846D01*
X154523460Y-68973846D01*
X155723460Y-68973846D01*
X155723460Y-69763846D01*
G37*
X155743460Y-68323846D02*
X154543460Y-68323846D01*
X154543460Y-67533846D01*
X155743460Y-67533846D01*
X155743460Y-68323846D01*
G36*
X155743460Y-68323846D02*
G01*
X154543460Y-68323846D01*
X154543460Y-67533846D01*
X155743460Y-67533846D01*
X155743460Y-68323846D01*
G37*
X155743460Y-71353846D02*
X154543460Y-71353846D01*
X154543460Y-70563846D01*
X155743460Y-70563846D01*
X155743460Y-71353846D01*
G36*
X155743460Y-71353846D02*
G01*
X154543460Y-71353846D01*
X154543460Y-70563846D01*
X155743460Y-70563846D01*
X155743460Y-71353846D01*
G37*
%TO.C,U14*%
X153553529Y-45432806D02*
X152353529Y-45432806D01*
X152353529Y-44642806D01*
X153553529Y-44642806D01*
X153553529Y-45432806D01*
G36*
X153553529Y-45432806D02*
G01*
X152353529Y-45432806D01*
X152353529Y-44642806D01*
X153553529Y-44642806D01*
X153553529Y-45432806D01*
G37*
X153583529Y-41762806D02*
X152383529Y-41762806D01*
X152383529Y-40972806D01*
X153583529Y-40972806D01*
X153583529Y-41762806D01*
G36*
X153583529Y-41762806D02*
G01*
X152383529Y-41762806D01*
X152383529Y-40972806D01*
X153583529Y-40972806D01*
X153583529Y-41762806D01*
G37*
X153603529Y-40322806D02*
X152403529Y-40322806D01*
X152403529Y-39532806D01*
X153603529Y-39532806D01*
X153603529Y-40322806D01*
G36*
X153603529Y-40322806D02*
G01*
X152403529Y-40322806D01*
X152403529Y-39532806D01*
X153603529Y-39532806D01*
X153603529Y-40322806D01*
G37*
X153603529Y-43352806D02*
X152403529Y-43352806D01*
X152403529Y-42562806D01*
X153603529Y-42562806D01*
X153603529Y-43352806D01*
G36*
X153603529Y-43352806D02*
G01*
X152403529Y-43352806D01*
X152403529Y-42562806D01*
X153603529Y-42562806D01*
X153603529Y-43352806D01*
G37*
X155683529Y-45427806D02*
X154483529Y-45427806D01*
X154483529Y-44637806D01*
X155683529Y-44637806D01*
X155683529Y-45427806D01*
G36*
X155683529Y-45427806D02*
G01*
X154483529Y-45427806D01*
X154483529Y-44637806D01*
X155683529Y-44637806D01*
X155683529Y-45427806D01*
G37*
X155713529Y-41757806D02*
X154513529Y-41757806D01*
X154513529Y-40967806D01*
X155713529Y-40967806D01*
X155713529Y-41757806D01*
G36*
X155713529Y-41757806D02*
G01*
X154513529Y-41757806D01*
X154513529Y-40967806D01*
X155713529Y-40967806D01*
X155713529Y-41757806D01*
G37*
X155733529Y-40317806D02*
X154533529Y-40317806D01*
X154533529Y-39527806D01*
X155733529Y-39527806D01*
X155733529Y-40317806D01*
G36*
X155733529Y-40317806D02*
G01*
X154533529Y-40317806D01*
X154533529Y-39527806D01*
X155733529Y-39527806D01*
X155733529Y-40317806D01*
G37*
X155733529Y-43347806D02*
X154533529Y-43347806D01*
X154533529Y-42557806D01*
X155733529Y-42557806D01*
X155733529Y-43347806D01*
G36*
X155733529Y-43347806D02*
G01*
X154533529Y-43347806D01*
X154533529Y-42557806D01*
X155733529Y-42557806D01*
X155733529Y-43347806D01*
G37*
%TO.C,U23*%
X181554356Y-99439780D02*
X180354356Y-99439780D01*
X180354356Y-98649780D01*
X181554356Y-98649780D01*
X181554356Y-99439780D01*
G36*
X181554356Y-99439780D02*
G01*
X180354356Y-99439780D01*
X180354356Y-98649780D01*
X181554356Y-98649780D01*
X181554356Y-99439780D01*
G37*
X181584356Y-95769780D02*
X180384356Y-95769780D01*
X180384356Y-94979780D01*
X181584356Y-94979780D01*
X181584356Y-95769780D01*
G36*
X181584356Y-95769780D02*
G01*
X180384356Y-95769780D01*
X180384356Y-94979780D01*
X181584356Y-94979780D01*
X181584356Y-95769780D01*
G37*
X181604356Y-94329780D02*
X180404356Y-94329780D01*
X180404356Y-93539780D01*
X181604356Y-93539780D01*
X181604356Y-94329780D01*
G36*
X181604356Y-94329780D02*
G01*
X180404356Y-94329780D01*
X180404356Y-93539780D01*
X181604356Y-93539780D01*
X181604356Y-94329780D01*
G37*
X181604356Y-97359780D02*
X180404356Y-97359780D01*
X180404356Y-96569780D01*
X181604356Y-96569780D01*
X181604356Y-97359780D01*
G36*
X181604356Y-97359780D02*
G01*
X180404356Y-97359780D01*
X180404356Y-96569780D01*
X181604356Y-96569780D01*
X181604356Y-97359780D01*
G37*
X183684356Y-99434780D02*
X182484356Y-99434780D01*
X182484356Y-98644780D01*
X183684356Y-98644780D01*
X183684356Y-99434780D01*
G36*
X183684356Y-99434780D02*
G01*
X182484356Y-99434780D01*
X182484356Y-98644780D01*
X183684356Y-98644780D01*
X183684356Y-99434780D01*
G37*
X183714356Y-95764780D02*
X182514356Y-95764780D01*
X182514356Y-94974780D01*
X183714356Y-94974780D01*
X183714356Y-95764780D01*
G36*
X183714356Y-95764780D02*
G01*
X182514356Y-95764780D01*
X182514356Y-94974780D01*
X183714356Y-94974780D01*
X183714356Y-95764780D01*
G37*
X183734356Y-94324780D02*
X182534356Y-94324780D01*
X182534356Y-93534780D01*
X183734356Y-93534780D01*
X183734356Y-94324780D01*
G36*
X183734356Y-94324780D02*
G01*
X182534356Y-94324780D01*
X182534356Y-93534780D01*
X183734356Y-93534780D01*
X183734356Y-94324780D01*
G37*
X183734356Y-97354780D02*
X182534356Y-97354780D01*
X182534356Y-96564780D01*
X183734356Y-96564780D01*
X183734356Y-97354780D01*
G36*
X183734356Y-97354780D02*
G01*
X182534356Y-97354780D01*
X182534356Y-96564780D01*
X183734356Y-96564780D01*
X183734356Y-97354780D01*
G37*
%TO.C,U12*%
X209549876Y-45433641D02*
X208349876Y-45433641D01*
X208349876Y-44643641D01*
X209549876Y-44643641D01*
X209549876Y-45433641D01*
G36*
X209549876Y-45433641D02*
G01*
X208349876Y-45433641D01*
X208349876Y-44643641D01*
X209549876Y-44643641D01*
X209549876Y-45433641D01*
G37*
X209579876Y-41763641D02*
X208379876Y-41763641D01*
X208379876Y-40973641D01*
X209579876Y-40973641D01*
X209579876Y-41763641D01*
G36*
X209579876Y-41763641D02*
G01*
X208379876Y-41763641D01*
X208379876Y-40973641D01*
X209579876Y-40973641D01*
X209579876Y-41763641D01*
G37*
X209599876Y-40323641D02*
X208399876Y-40323641D01*
X208399876Y-39533641D01*
X209599876Y-39533641D01*
X209599876Y-40323641D01*
G36*
X209599876Y-40323641D02*
G01*
X208399876Y-40323641D01*
X208399876Y-39533641D01*
X209599876Y-39533641D01*
X209599876Y-40323641D01*
G37*
X209599876Y-43353641D02*
X208399876Y-43353641D01*
X208399876Y-42563641D01*
X209599876Y-42563641D01*
X209599876Y-43353641D01*
G36*
X209599876Y-43353641D02*
G01*
X208399876Y-43353641D01*
X208399876Y-42563641D01*
X209599876Y-42563641D01*
X209599876Y-43353641D01*
G37*
X211679876Y-45428641D02*
X210479876Y-45428641D01*
X210479876Y-44638641D01*
X211679876Y-44638641D01*
X211679876Y-45428641D01*
G36*
X211679876Y-45428641D02*
G01*
X210479876Y-45428641D01*
X210479876Y-44638641D01*
X211679876Y-44638641D01*
X211679876Y-45428641D01*
G37*
X211709876Y-41758641D02*
X210509876Y-41758641D01*
X210509876Y-40968641D01*
X211709876Y-40968641D01*
X211709876Y-41758641D01*
G36*
X211709876Y-41758641D02*
G01*
X210509876Y-41758641D01*
X210509876Y-40968641D01*
X211709876Y-40968641D01*
X211709876Y-41758641D01*
G37*
X211729876Y-40318641D02*
X210529876Y-40318641D01*
X210529876Y-39528641D01*
X211729876Y-39528641D01*
X211729876Y-40318641D01*
G36*
X211729876Y-40318641D02*
G01*
X210529876Y-40318641D01*
X210529876Y-39528641D01*
X211729876Y-39528641D01*
X211729876Y-40318641D01*
G37*
X211729876Y-43348641D02*
X210529876Y-43348641D01*
X210529876Y-42558641D01*
X211729876Y-42558641D01*
X211729876Y-43348641D01*
G36*
X211729876Y-43348641D02*
G01*
X210529876Y-43348641D01*
X210529876Y-42558641D01*
X211729876Y-42558641D01*
X211729876Y-43348641D01*
G37*
%TO.C,U16*%
X181554556Y-73428249D02*
X180354556Y-73428249D01*
X180354556Y-72638249D01*
X181554556Y-72638249D01*
X181554556Y-73428249D01*
G36*
X181554556Y-73428249D02*
G01*
X180354556Y-73428249D01*
X180354556Y-72638249D01*
X181554556Y-72638249D01*
X181554556Y-73428249D01*
G37*
X181584556Y-69758249D02*
X180384556Y-69758249D01*
X180384556Y-68968249D01*
X181584556Y-68968249D01*
X181584556Y-69758249D01*
G36*
X181584556Y-69758249D02*
G01*
X180384556Y-69758249D01*
X180384556Y-68968249D01*
X181584556Y-68968249D01*
X181584556Y-69758249D01*
G37*
X181604556Y-68318249D02*
X180404556Y-68318249D01*
X180404556Y-67528249D01*
X181604556Y-67528249D01*
X181604556Y-68318249D01*
G36*
X181604556Y-68318249D02*
G01*
X180404556Y-68318249D01*
X180404556Y-67528249D01*
X181604556Y-67528249D01*
X181604556Y-68318249D01*
G37*
X181604556Y-71348249D02*
X180404556Y-71348249D01*
X180404556Y-70558249D01*
X181604556Y-70558249D01*
X181604556Y-71348249D01*
G36*
X181604556Y-71348249D02*
G01*
X180404556Y-71348249D01*
X180404556Y-70558249D01*
X181604556Y-70558249D01*
X181604556Y-71348249D01*
G37*
X183684556Y-73423249D02*
X182484556Y-73423249D01*
X182484556Y-72633249D01*
X183684556Y-72633249D01*
X183684556Y-73423249D01*
G36*
X183684556Y-73423249D02*
G01*
X182484556Y-73423249D01*
X182484556Y-72633249D01*
X183684556Y-72633249D01*
X183684556Y-73423249D01*
G37*
X183714556Y-69753249D02*
X182514556Y-69753249D01*
X182514556Y-68963249D01*
X183714556Y-68963249D01*
X183714556Y-69753249D01*
G36*
X183714556Y-69753249D02*
G01*
X182514556Y-69753249D01*
X182514556Y-68963249D01*
X183714556Y-68963249D01*
X183714556Y-69753249D01*
G37*
X183734556Y-68313249D02*
X182534556Y-68313249D01*
X182534556Y-67523249D01*
X183734556Y-67523249D01*
X183734556Y-68313249D01*
G36*
X183734556Y-68313249D02*
G01*
X182534556Y-68313249D01*
X182534556Y-67523249D01*
X183734556Y-67523249D01*
X183734556Y-68313249D01*
G37*
X183734556Y-71343249D02*
X182534556Y-71343249D01*
X182534556Y-70553249D01*
X183734556Y-70553249D01*
X183734556Y-71343249D01*
G36*
X183734556Y-71343249D02*
G01*
X182534556Y-71343249D01*
X182534556Y-70553249D01*
X183734556Y-70553249D01*
X183734556Y-71343249D01*
G37*
%TO.C,U15*%
X209549999Y-73435734D02*
X208349999Y-73435734D01*
X208349999Y-72645734D01*
X209549999Y-72645734D01*
X209549999Y-73435734D01*
G36*
X209549999Y-73435734D02*
G01*
X208349999Y-73435734D01*
X208349999Y-72645734D01*
X209549999Y-72645734D01*
X209549999Y-73435734D01*
G37*
X209579999Y-69765734D02*
X208379999Y-69765734D01*
X208379999Y-68975734D01*
X209579999Y-68975734D01*
X209579999Y-69765734D01*
G36*
X209579999Y-69765734D02*
G01*
X208379999Y-69765734D01*
X208379999Y-68975734D01*
X209579999Y-68975734D01*
X209579999Y-69765734D01*
G37*
X209599999Y-68325734D02*
X208399999Y-68325734D01*
X208399999Y-67535734D01*
X209599999Y-67535734D01*
X209599999Y-68325734D01*
G36*
X209599999Y-68325734D02*
G01*
X208399999Y-68325734D01*
X208399999Y-67535734D01*
X209599999Y-67535734D01*
X209599999Y-68325734D01*
G37*
X209599999Y-71355734D02*
X208399999Y-71355734D01*
X208399999Y-70565734D01*
X209599999Y-70565734D01*
X209599999Y-71355734D01*
G36*
X209599999Y-71355734D02*
G01*
X208399999Y-71355734D01*
X208399999Y-70565734D01*
X209599999Y-70565734D01*
X209599999Y-71355734D01*
G37*
X211679999Y-73430734D02*
X210479999Y-73430734D01*
X210479999Y-72640734D01*
X211679999Y-72640734D01*
X211679999Y-73430734D01*
G36*
X211679999Y-73430734D02*
G01*
X210479999Y-73430734D01*
X210479999Y-72640734D01*
X211679999Y-72640734D01*
X211679999Y-73430734D01*
G37*
X211709999Y-69760734D02*
X210509999Y-69760734D01*
X210509999Y-68970734D01*
X211709999Y-68970734D01*
X211709999Y-69760734D01*
G36*
X211709999Y-69760734D02*
G01*
X210509999Y-69760734D01*
X210509999Y-68970734D01*
X211709999Y-68970734D01*
X211709999Y-69760734D01*
G37*
X211729999Y-68320734D02*
X210529999Y-68320734D01*
X210529999Y-67530734D01*
X211729999Y-67530734D01*
X211729999Y-68320734D01*
G36*
X211729999Y-68320734D02*
G01*
X210529999Y-68320734D01*
X210529999Y-67530734D01*
X211729999Y-67530734D01*
X211729999Y-68320734D01*
G37*
X211729999Y-71350734D02*
X210529999Y-71350734D01*
X210529999Y-70560734D01*
X211729999Y-70560734D01*
X211729999Y-71350734D01*
G36*
X211729999Y-71350734D02*
G01*
X210529999Y-71350734D01*
X210529999Y-70560734D01*
X211729999Y-70560734D01*
X211729999Y-71350734D01*
G37*
%TO.C,U22*%
X209550280Y-99440663D02*
X208350280Y-99440663D01*
X208350280Y-98650663D01*
X209550280Y-98650663D01*
X209550280Y-99440663D01*
G36*
X209550280Y-99440663D02*
G01*
X208350280Y-99440663D01*
X208350280Y-98650663D01*
X209550280Y-98650663D01*
X209550280Y-99440663D01*
G37*
X209580280Y-95770663D02*
X208380280Y-95770663D01*
X208380280Y-94980663D01*
X209580280Y-94980663D01*
X209580280Y-95770663D01*
G36*
X209580280Y-95770663D02*
G01*
X208380280Y-95770663D01*
X208380280Y-94980663D01*
X209580280Y-94980663D01*
X209580280Y-95770663D01*
G37*
X209600280Y-94330663D02*
X208400280Y-94330663D01*
X208400280Y-93540663D01*
X209600280Y-93540663D01*
X209600280Y-94330663D01*
G36*
X209600280Y-94330663D02*
G01*
X208400280Y-94330663D01*
X208400280Y-93540663D01*
X209600280Y-93540663D01*
X209600280Y-94330663D01*
G37*
X209600280Y-97360663D02*
X208400280Y-97360663D01*
X208400280Y-96570663D01*
X209600280Y-96570663D01*
X209600280Y-97360663D01*
G36*
X209600280Y-97360663D02*
G01*
X208400280Y-97360663D01*
X208400280Y-96570663D01*
X209600280Y-96570663D01*
X209600280Y-97360663D01*
G37*
X211680280Y-99435663D02*
X210480280Y-99435663D01*
X210480280Y-98645663D01*
X211680280Y-98645663D01*
X211680280Y-99435663D01*
G36*
X211680280Y-99435663D02*
G01*
X210480280Y-99435663D01*
X210480280Y-98645663D01*
X211680280Y-98645663D01*
X211680280Y-99435663D01*
G37*
X211710280Y-95765663D02*
X210510280Y-95765663D01*
X210510280Y-94975663D01*
X211710280Y-94975663D01*
X211710280Y-95765663D01*
G36*
X211710280Y-95765663D02*
G01*
X210510280Y-95765663D01*
X210510280Y-94975663D01*
X211710280Y-94975663D01*
X211710280Y-95765663D01*
G37*
X211730280Y-94325663D02*
X210530280Y-94325663D01*
X210530280Y-93535663D01*
X211730280Y-93535663D01*
X211730280Y-94325663D01*
G36*
X211730280Y-94325663D02*
G01*
X210530280Y-94325663D01*
X210530280Y-93535663D01*
X211730280Y-93535663D01*
X211730280Y-94325663D01*
G37*
X211730280Y-97355663D02*
X210530280Y-97355663D01*
X210530280Y-96565663D01*
X211730280Y-96565663D01*
X211730280Y-97355663D01*
G36*
X211730280Y-97355663D02*
G01*
X210530280Y-97355663D01*
X210530280Y-96565663D01*
X211730280Y-96565663D01*
X211730280Y-97355663D01*
G37*
%TO.C,U13*%
X181537597Y-45429575D02*
X180337597Y-45429575D01*
X180337597Y-44639575D01*
X181537597Y-44639575D01*
X181537597Y-45429575D01*
G36*
X181537597Y-45429575D02*
G01*
X180337597Y-45429575D01*
X180337597Y-44639575D01*
X181537597Y-44639575D01*
X181537597Y-45429575D01*
G37*
X181567597Y-41759575D02*
X180367597Y-41759575D01*
X180367597Y-40969575D01*
X181567597Y-40969575D01*
X181567597Y-41759575D01*
G36*
X181567597Y-41759575D02*
G01*
X180367597Y-41759575D01*
X180367597Y-40969575D01*
X181567597Y-40969575D01*
X181567597Y-41759575D01*
G37*
X181587597Y-40319575D02*
X180387597Y-40319575D01*
X180387597Y-39529575D01*
X181587597Y-39529575D01*
X181587597Y-40319575D01*
G36*
X181587597Y-40319575D02*
G01*
X180387597Y-40319575D01*
X180387597Y-39529575D01*
X181587597Y-39529575D01*
X181587597Y-40319575D01*
G37*
X181587597Y-43349575D02*
X180387597Y-43349575D01*
X180387597Y-42559575D01*
X181587597Y-42559575D01*
X181587597Y-43349575D01*
G36*
X181587597Y-43349575D02*
G01*
X180387597Y-43349575D01*
X180387597Y-42559575D01*
X181587597Y-42559575D01*
X181587597Y-43349575D01*
G37*
X183667597Y-45424575D02*
X182467597Y-45424575D01*
X182467597Y-44634575D01*
X183667597Y-44634575D01*
X183667597Y-45424575D01*
G36*
X183667597Y-45424575D02*
G01*
X182467597Y-45424575D01*
X182467597Y-44634575D01*
X183667597Y-44634575D01*
X183667597Y-45424575D01*
G37*
X183697597Y-41754575D02*
X182497597Y-41754575D01*
X182497597Y-40964575D01*
X183697597Y-40964575D01*
X183697597Y-41754575D01*
G36*
X183697597Y-41754575D02*
G01*
X182497597Y-41754575D01*
X182497597Y-40964575D01*
X183697597Y-40964575D01*
X183697597Y-41754575D01*
G37*
X183717597Y-40314575D02*
X182517597Y-40314575D01*
X182517597Y-39524575D01*
X183717597Y-39524575D01*
X183717597Y-40314575D01*
G36*
X183717597Y-40314575D02*
G01*
X182517597Y-40314575D01*
X182517597Y-39524575D01*
X183717597Y-39524575D01*
X183717597Y-40314575D01*
G37*
X183717597Y-43344575D02*
X182517597Y-43344575D01*
X182517597Y-42554575D01*
X183717597Y-42554575D01*
X183717597Y-43344575D01*
G36*
X183717597Y-43344575D02*
G01*
X182517597Y-43344575D01*
X182517597Y-42554575D01*
X183717597Y-42554575D01*
X183717597Y-43344575D01*
G37*
%TO.C,U24*%
X153554331Y-99435325D02*
X152354331Y-99435325D01*
X152354331Y-98645325D01*
X153554331Y-98645325D01*
X153554331Y-99435325D01*
G36*
X153554331Y-99435325D02*
G01*
X152354331Y-99435325D01*
X152354331Y-98645325D01*
X153554331Y-98645325D01*
X153554331Y-99435325D01*
G37*
X153584331Y-95765325D02*
X152384331Y-95765325D01*
X152384331Y-94975325D01*
X153584331Y-94975325D01*
X153584331Y-95765325D01*
G36*
X153584331Y-95765325D02*
G01*
X152384331Y-95765325D01*
X152384331Y-94975325D01*
X153584331Y-94975325D01*
X153584331Y-95765325D01*
G37*
X153604331Y-94325325D02*
X152404331Y-94325325D01*
X152404331Y-93535325D01*
X153604331Y-93535325D01*
X153604331Y-94325325D01*
G36*
X153604331Y-94325325D02*
G01*
X152404331Y-94325325D01*
X152404331Y-93535325D01*
X153604331Y-93535325D01*
X153604331Y-94325325D01*
G37*
X153604331Y-97355325D02*
X152404331Y-97355325D01*
X152404331Y-96565325D01*
X153604331Y-96565325D01*
X153604331Y-97355325D01*
G36*
X153604331Y-97355325D02*
G01*
X152404331Y-97355325D01*
X152404331Y-96565325D01*
X153604331Y-96565325D01*
X153604331Y-97355325D01*
G37*
X155684331Y-99430325D02*
X154484331Y-99430325D01*
X154484331Y-98640325D01*
X155684331Y-98640325D01*
X155684331Y-99430325D01*
G36*
X155684331Y-99430325D02*
G01*
X154484331Y-99430325D01*
X154484331Y-98640325D01*
X155684331Y-98640325D01*
X155684331Y-99430325D01*
G37*
X155714331Y-95760325D02*
X154514331Y-95760325D01*
X154514331Y-94970325D01*
X155714331Y-94970325D01*
X155714331Y-95760325D01*
G36*
X155714331Y-95760325D02*
G01*
X154514331Y-95760325D01*
X154514331Y-94970325D01*
X155714331Y-94970325D01*
X155714331Y-95760325D01*
G37*
X155734331Y-94320325D02*
X154534331Y-94320325D01*
X154534331Y-93530325D01*
X155734331Y-93530325D01*
X155734331Y-94320325D01*
G36*
X155734331Y-94320325D02*
G01*
X154534331Y-94320325D01*
X154534331Y-93530325D01*
X155734331Y-93530325D01*
X155734331Y-94320325D01*
G37*
X155734331Y-97350325D02*
X154534331Y-97350325D01*
X154534331Y-96560325D01*
X155734331Y-96560325D01*
X155734331Y-97350325D01*
G36*
X155734331Y-97350325D02*
G01*
X154534331Y-97350325D01*
X154534331Y-96560325D01*
X155734331Y-96560325D01*
X155734331Y-97350325D01*
G37*
%TD*%
D11*
%TO.C,C80*%
X81600000Y-109545085D03*
X81600000Y-108454915D03*
%TD*%
%TO.C,C29*%
X101600000Y-67559830D03*
X101600000Y-68650000D03*
%TD*%
D12*
%TO.C,U17*%
X157029460Y-73791846D03*
X157029460Y-73289846D03*
X157029460Y-72787846D03*
X157029460Y-72285846D03*
X157029460Y-71783846D03*
X157029460Y-71281846D03*
X157029460Y-70779846D03*
X157029460Y-70277846D03*
X157029460Y-69775846D03*
X157029460Y-69273846D03*
X157029460Y-68771846D03*
X157029460Y-68269846D03*
X157029460Y-67767846D03*
X157029460Y-67265846D03*
X151197460Y-67278846D03*
X151197460Y-67778846D03*
X151197460Y-68278846D03*
X151197460Y-68778846D03*
X151197460Y-69278846D03*
X151197460Y-69775846D03*
X151197460Y-70278846D03*
X151197460Y-70779846D03*
X151197460Y-71281846D03*
X151197460Y-71783846D03*
X151197460Y-72285846D03*
X151197460Y-72778846D03*
X151197460Y-73289846D03*
X151197460Y-73778846D03*
%TD*%
D13*
%TO.C,C2*%
X99400000Y-41225000D03*
X99400000Y-43225000D03*
%TD*%
D14*
%TO.C,Y1*%
X82700000Y-95799987D03*
X82700000Y-94299987D03*
%TD*%
D15*
%TO.C,R47*%
X112887533Y-103900888D03*
X112887533Y-104766522D03*
%TD*%
D16*
%TO.C,C85*%
X72820053Y-44525000D03*
X67479947Y-44525000D03*
%TD*%
D11*
%TO.C,C65*%
X114200000Y-98459830D03*
X114200000Y-99550000D03*
%TD*%
D17*
%TO.C,R59*%
X71365839Y-60123396D03*
X72231473Y-60123396D03*
%TD*%
D18*
%TO.C,U2*%
X110497759Y-76273529D03*
X110497759Y-75773657D03*
X110497759Y-75273529D03*
X110497759Y-74773657D03*
X110497759Y-74273529D03*
X110497759Y-73773657D03*
X110497759Y-73273529D03*
X110497759Y-72773657D03*
X110497759Y-72273529D03*
X110497759Y-71773657D03*
X110497759Y-71273529D03*
X110497759Y-70773657D03*
D19*
X109847772Y-70123669D03*
X109347645Y-70123669D03*
X108847772Y-70123669D03*
X108347645Y-70123669D03*
X107847772Y-70123669D03*
X107347645Y-70123669D03*
X106847772Y-70123669D03*
X106347645Y-70123669D03*
D18*
X105697658Y-70773657D03*
X105697658Y-71273529D03*
X105697658Y-71773657D03*
X105697658Y-72273529D03*
X105697658Y-72773657D03*
X105697658Y-73273529D03*
X105697658Y-73773657D03*
X105697658Y-74273529D03*
X105697658Y-74773657D03*
X105697658Y-75273529D03*
X105697658Y-75773657D03*
X105697658Y-76273529D03*
D19*
X106347645Y-76923517D03*
X106847772Y-76923517D03*
X107347645Y-76923517D03*
X107847772Y-76923517D03*
X108347645Y-76923517D03*
X108847772Y-76923517D03*
X109347645Y-76923517D03*
X109847772Y-76923517D03*
D20*
X108097709Y-73523720D03*
%TD*%
D15*
%TO.C,R52*%
X80800000Y-102467183D03*
X80800000Y-103332817D03*
%TD*%
D13*
%TO.C,C265*%
X98750000Y-106950000D03*
X98750000Y-108950000D03*
%TD*%
D11*
%TO.C,C41*%
X138100000Y-70004915D03*
X138100000Y-71095085D03*
%TD*%
D15*
%TO.C,R4*%
X115100000Y-51900000D03*
X115100000Y-52765634D03*
%TD*%
%TO.C,R56*%
X77600000Y-84567183D03*
X77600000Y-85432817D03*
%TD*%
D17*
%TO.C,R143*%
X99654090Y-103627538D03*
X100519724Y-103627538D03*
%TD*%
D12*
%TO.C,U14*%
X157019529Y-45785806D03*
X157019529Y-45283806D03*
X157019529Y-44781806D03*
X157019529Y-44279806D03*
X157019529Y-43777806D03*
X157019529Y-43275806D03*
X157019529Y-42773806D03*
X157019529Y-42271806D03*
X157019529Y-41769806D03*
X157019529Y-41267806D03*
X157019529Y-40765806D03*
X157019529Y-40263806D03*
X157019529Y-39761806D03*
X157019529Y-39259806D03*
X151187529Y-39272806D03*
X151187529Y-39772806D03*
X151187529Y-40272806D03*
X151187529Y-40772806D03*
X151187529Y-41272806D03*
X151187529Y-41769806D03*
X151187529Y-42272806D03*
X151187529Y-42773806D03*
X151187529Y-43275806D03*
X151187529Y-43777806D03*
X151187529Y-44279806D03*
X151187529Y-44772806D03*
X151187529Y-45283806D03*
X151187529Y-45772806D03*
%TD*%
D21*
%TO.C,U27*%
X96244792Y-103468478D03*
X96244792Y-102518516D03*
X96244792Y-101568554D03*
X93946596Y-101568554D03*
X93946596Y-102518516D03*
X93946596Y-103468478D03*
%TD*%
D17*
%TO.C,R136*%
X102663546Y-79530814D03*
X103529180Y-79530814D03*
%TD*%
%TO.C,R134*%
X102657727Y-77296043D03*
X103523361Y-77296043D03*
%TD*%
%TO.C,R3*%
X105860490Y-53527141D03*
X106726124Y-53527141D03*
%TD*%
D22*
%TO.C,C22*%
X96639814Y-104819569D03*
X95549644Y-104819569D03*
%TD*%
D12*
%TO.C,U23*%
X185020356Y-99792780D03*
X185020356Y-99290780D03*
X185020356Y-98788780D03*
X185020356Y-98286780D03*
X185020356Y-97784780D03*
X185020356Y-97282780D03*
X185020356Y-96780780D03*
X185020356Y-96278780D03*
X185020356Y-95776780D03*
X185020356Y-95274780D03*
X185020356Y-94772780D03*
X185020356Y-94270780D03*
X185020356Y-93768780D03*
X185020356Y-93266780D03*
X179188356Y-93279780D03*
X179188356Y-93779780D03*
X179188356Y-94279780D03*
X179188356Y-94779780D03*
X179188356Y-95279780D03*
X179188356Y-95776780D03*
X179188356Y-96279780D03*
X179188356Y-96780780D03*
X179188356Y-97282780D03*
X179188356Y-97784780D03*
X179188356Y-98286780D03*
X179188356Y-98779780D03*
X179188356Y-99290780D03*
X179188356Y-99779780D03*
%TD*%
D22*
%TO.C,C263*%
X114146591Y-101918715D03*
X113056421Y-101918715D03*
%TD*%
D11*
%TO.C,C32*%
X114675000Y-72784830D03*
X114675000Y-73875000D03*
%TD*%
%TO.C,C9*%
X114720400Y-46398030D03*
X114720400Y-47488200D03*
%TD*%
%TO.C,C12*%
X138100000Y-42004915D03*
X138100000Y-43095085D03*
%TD*%
D12*
%TO.C,U12*%
X213015876Y-45786641D03*
X213015876Y-45284641D03*
X213015876Y-44782641D03*
X213015876Y-44280641D03*
X213015876Y-43778641D03*
X213015876Y-43276641D03*
X213015876Y-42774641D03*
X213015876Y-42272641D03*
X213015876Y-41770641D03*
X213015876Y-41268641D03*
X213015876Y-40766641D03*
X213015876Y-40264641D03*
X213015876Y-39762641D03*
X213015876Y-39260641D03*
X207183876Y-39273641D03*
X207183876Y-39773641D03*
X207183876Y-40273641D03*
X207183876Y-40773641D03*
X207183876Y-41273641D03*
X207183876Y-41770641D03*
X207183876Y-42273641D03*
X207183876Y-42774641D03*
X207183876Y-43276641D03*
X207183876Y-43778641D03*
X207183876Y-44280641D03*
X207183876Y-44773641D03*
X207183876Y-45284641D03*
X207183876Y-45773641D03*
%TD*%
D11*
%TO.C,C264*%
X101550000Y-107000000D03*
X101550000Y-108090170D03*
%TD*%
D17*
%TO.C,R62*%
X73960349Y-58926343D03*
X74825983Y-58926343D03*
%TD*%
D22*
%TO.C,C86*%
X68840170Y-49050000D03*
X67750000Y-49050000D03*
%TD*%
D23*
%TO.C,U7*%
X78848382Y-105043795D03*
X78848382Y-103773792D03*
X78848382Y-102503790D03*
X78848382Y-101233787D03*
X78848382Y-99963785D03*
X78848382Y-98693782D03*
X78848382Y-97423780D03*
X78848382Y-96153777D03*
X78848382Y-94883774D03*
X78848382Y-93613772D03*
X78848382Y-92343769D03*
X78848382Y-91073767D03*
X78848382Y-89803764D03*
X78848382Y-88533762D03*
D24*
X77083332Y-87253853D03*
X75813329Y-87253853D03*
X74543327Y-87253853D03*
X73273324Y-87253853D03*
X72003322Y-87253853D03*
X70733319Y-87253853D03*
X69463317Y-87253853D03*
X68193314Y-87253853D03*
X66923312Y-87253853D03*
X65653309Y-87253853D03*
X64383307Y-87253853D03*
X63113304Y-87283825D03*
D23*
X61348254Y-88533762D03*
X61348254Y-89803764D03*
X61348254Y-91073767D03*
X61348254Y-92343769D03*
X61348254Y-93613772D03*
X61348254Y-94883774D03*
X61348254Y-96153777D03*
X61348254Y-97423780D03*
X61348254Y-98693782D03*
X61348254Y-99963785D03*
X61348254Y-101233787D03*
X61348254Y-102503790D03*
X61348254Y-103773792D03*
X61348254Y-105043795D03*
D25*
X72998496Y-98723754D03*
X72998496Y-97323703D03*
X72998496Y-95923653D03*
X71598445Y-98723754D03*
X71598445Y-97323703D03*
X71598445Y-95923653D03*
X70198394Y-98723754D03*
X70198394Y-97323703D03*
X70198394Y-95923653D03*
%TD*%
D17*
%TO.C,R44*%
X108772679Y-104830063D03*
X109638313Y-104830063D03*
%TD*%
D26*
%TO.C,L1*%
X119444908Y-50000000D03*
D27*
X135800000Y-50000000D03*
%TD*%
D17*
%TO.C,R14*%
X102667183Y-50200000D03*
X103532817Y-50200000D03*
%TD*%
D11*
%TO.C,C79*%
X80800000Y-100104915D03*
X80800000Y-101195085D03*
%TD*%
D22*
%TO.C,C21*%
X93940170Y-100050000D03*
X92850000Y-100050000D03*
%TD*%
D11*
%TO.C,C68*%
X138100000Y-96004915D03*
X138100000Y-97095085D03*
%TD*%
D17*
%TO.C,R41*%
X99660683Y-101193936D03*
X100526317Y-101193936D03*
%TD*%
D11*
%TO.C,C7*%
X101600000Y-41604915D03*
X101600000Y-42695085D03*
%TD*%
D17*
%TO.C,R22*%
X105900000Y-79500000D03*
X106765634Y-79500000D03*
%TD*%
D11*
%TO.C,C78*%
X80800000Y-93704915D03*
X80800000Y-94795085D03*
%TD*%
D22*
%TO.C,C19*%
X114145085Y-49900000D03*
X113054915Y-49900000D03*
%TD*%
D11*
%TO.C,C30*%
X103397439Y-67566182D03*
X103397439Y-68656352D03*
%TD*%
D12*
%TO.C,U16*%
X185020556Y-73781249D03*
X185020556Y-73279249D03*
X185020556Y-72777249D03*
X185020556Y-72275249D03*
X185020556Y-71773249D03*
X185020556Y-71271249D03*
X185020556Y-70769249D03*
X185020556Y-70267249D03*
X185020556Y-69765249D03*
X185020556Y-69263249D03*
X185020556Y-68761249D03*
X185020556Y-68259249D03*
X185020556Y-67757249D03*
X185020556Y-67255249D03*
X179188556Y-67268249D03*
X179188556Y-67768249D03*
X179188556Y-68268249D03*
X179188556Y-68768249D03*
X179188556Y-69268249D03*
X179188556Y-69765249D03*
X179188556Y-70268249D03*
X179188556Y-70769249D03*
X179188556Y-71271249D03*
X179188556Y-71773249D03*
X179188556Y-72275249D03*
X179188556Y-72768249D03*
X179188556Y-73279249D03*
X179188556Y-73768249D03*
%TD*%
D17*
%TO.C,R141*%
X99659908Y-102359575D03*
X100525542Y-102359575D03*
%TD*%
%TO.C,R15*%
X102650000Y-51300000D03*
X103515634Y-51300000D03*
%TD*%
D28*
%TO.C,C20*%
X94550000Y-98500000D03*
X92550000Y-98500000D03*
%TD*%
D22*
%TO.C,C73*%
X106262497Y-104224845D03*
X107352667Y-104224845D03*
%TD*%
D11*
%TO.C,C8*%
X103400000Y-41559830D03*
X103400000Y-42650000D03*
%TD*%
D16*
%TO.C,C23*%
X92748643Y-70525678D03*
X87408537Y-70525678D03*
%TD*%
D22*
%TO.C,C262*%
X113059830Y-75900000D03*
X114150000Y-75900000D03*
%TD*%
D17*
%TO.C,R16*%
X102667183Y-52450000D03*
X103532817Y-52450000D03*
%TD*%
D15*
%TO.C,R54*%
X77600000Y-80932817D03*
X77600000Y-80067183D03*
%TD*%
D11*
%TO.C,C58*%
X113030000Y-98464115D03*
X113030000Y-99554285D03*
%TD*%
D17*
%TO.C,R8*%
X108759837Y-52726548D03*
X109625471Y-52726548D03*
%TD*%
D15*
%TO.C,R13*%
X112897540Y-51886550D03*
X112897540Y-52752184D03*
%TD*%
D22*
%TO.C,C46*%
X106054915Y-78250000D03*
X107145085Y-78250000D03*
%TD*%
D11*
%TO.C,C57*%
X103886000Y-91453715D03*
X103886000Y-92543885D03*
%TD*%
D16*
%TO.C,C1*%
X92942424Y-92526880D03*
X87602318Y-92526880D03*
%TD*%
D11*
%TO.C,C56*%
X101600000Y-91453715D03*
X101600000Y-92543885D03*
%TD*%
D17*
%TO.C,R135*%
X102660675Y-78389146D03*
X103526309Y-78389146D03*
%TD*%
D29*
%TO.C,R147*%
X102875000Y-106950000D03*
X102875000Y-108456732D03*
%TD*%
D22*
%TO.C,C18*%
X106232493Y-52216700D03*
X107322663Y-52216700D03*
%TD*%
D17*
%TO.C,R145*%
X93430733Y-104825428D03*
X94296367Y-104825428D03*
%TD*%
%TO.C,R27*%
X108763828Y-78720491D03*
X109629462Y-78720491D03*
%TD*%
D18*
%TO.C,U4*%
X110493101Y-102271218D03*
X110493101Y-101771346D03*
X110493101Y-101271218D03*
X110493101Y-100771346D03*
X110493101Y-100271218D03*
X110493101Y-99771346D03*
X110493101Y-99271218D03*
X110493101Y-98771346D03*
X110493101Y-98271218D03*
X110493101Y-97771346D03*
X110493101Y-97271218D03*
X110493101Y-96771346D03*
D19*
X109843114Y-96121358D03*
X109342987Y-96121358D03*
X108843114Y-96121358D03*
X108342987Y-96121358D03*
X107843114Y-96121358D03*
X107342987Y-96121358D03*
X106843114Y-96121358D03*
X106342987Y-96121358D03*
D18*
X105693000Y-96771346D03*
X105693000Y-97271218D03*
X105693000Y-97771346D03*
X105693000Y-98271218D03*
X105693000Y-98771346D03*
X105693000Y-99271218D03*
X105693000Y-99771346D03*
X105693000Y-100271218D03*
X105693000Y-100771346D03*
X105693000Y-101271218D03*
X105693000Y-101771346D03*
X105693000Y-102271218D03*
D19*
X106342987Y-102921206D03*
X106843114Y-102921206D03*
X107342987Y-102921206D03*
X107843114Y-102921206D03*
X108342987Y-102921206D03*
X108843114Y-102921206D03*
X109342987Y-102921206D03*
X109843114Y-102921206D03*
D20*
X108093051Y-99521409D03*
%TD*%
D12*
%TO.C,U15*%
X213015999Y-73788734D03*
X213015999Y-73286734D03*
X213015999Y-72784734D03*
X213015999Y-72282734D03*
X213015999Y-71780734D03*
X213015999Y-71278734D03*
X213015999Y-70776734D03*
X213015999Y-70274734D03*
X213015999Y-69772734D03*
X213015999Y-69270734D03*
X213015999Y-68768734D03*
X213015999Y-68266734D03*
X213015999Y-67764734D03*
X213015999Y-67262734D03*
X207183999Y-67275734D03*
X207183999Y-67775734D03*
X207183999Y-68275734D03*
X207183999Y-68775734D03*
X207183999Y-69275734D03*
X207183999Y-69772734D03*
X207183999Y-70275734D03*
X207183999Y-70776734D03*
X207183999Y-71278734D03*
X207183999Y-71780734D03*
X207183999Y-72282734D03*
X207183999Y-72775734D03*
X207183999Y-73286734D03*
X207183999Y-73775734D03*
%TD*%
D11*
%TO.C,C77*%
X80800000Y-97300000D03*
X80800000Y-96209830D03*
%TD*%
D17*
%TO.C,R133*%
X102656974Y-76201474D03*
X103522608Y-76201474D03*
%TD*%
%TO.C,R38*%
X105775000Y-105450000D03*
X106640634Y-105450000D03*
%TD*%
D15*
%TO.C,R23*%
X115100000Y-78782817D03*
X115100000Y-77917183D03*
%TD*%
D11*
%TO.C,C31*%
X113000000Y-72759830D03*
X113000000Y-73850000D03*
%TD*%
D17*
%TO.C,R60*%
X73967183Y-60134200D03*
X74832817Y-60134200D03*
%TD*%
D12*
%TO.C,U22*%
X213016280Y-99793663D03*
X213016280Y-99291663D03*
X213016280Y-98789663D03*
X213016280Y-98287663D03*
X213016280Y-97785663D03*
X213016280Y-97283663D03*
X213016280Y-96781663D03*
X213016280Y-96279663D03*
X213016280Y-95777663D03*
X213016280Y-95275663D03*
X213016280Y-94773663D03*
X213016280Y-94271663D03*
X213016280Y-93769663D03*
X213016280Y-93267663D03*
X207184280Y-93280663D03*
X207184280Y-93780663D03*
X207184280Y-94280663D03*
X207184280Y-94780663D03*
X207184280Y-95280663D03*
X207184280Y-95777663D03*
X207184280Y-96280663D03*
X207184280Y-96781663D03*
X207184280Y-97283663D03*
X207184280Y-97785663D03*
X207184280Y-98287663D03*
X207184280Y-98780663D03*
X207184280Y-99291663D03*
X207184280Y-99780663D03*
%TD*%
D11*
%TO.C,C11*%
X113025000Y-46400000D03*
X113025000Y-47490170D03*
%TD*%
D26*
%TO.C,L2*%
X118972454Y-77000000D03*
D27*
X135327546Y-77000000D03*
%TD*%
D13*
%TO.C,C27*%
X99400000Y-67150000D03*
X99400000Y-69150000D03*
%TD*%
D11*
%TO.C,C81*%
X80800000Y-105595085D03*
X80800000Y-104504915D03*
%TD*%
D18*
%TO.C,U1*%
X110500114Y-50300012D03*
X110500114Y-49800140D03*
X110500114Y-49300012D03*
X110500114Y-48800140D03*
X110500114Y-48300012D03*
X110500114Y-47800140D03*
X110500114Y-47300012D03*
X110500114Y-46800140D03*
X110500114Y-46300012D03*
X110500114Y-45800140D03*
X110500114Y-45300012D03*
X110500114Y-44800140D03*
D19*
X109850127Y-44150152D03*
X109350000Y-44150152D03*
X108850127Y-44150152D03*
X108350000Y-44150152D03*
X107850127Y-44150152D03*
X107350000Y-44150152D03*
X106850127Y-44150152D03*
X106350000Y-44150152D03*
D18*
X105700013Y-44800140D03*
X105700013Y-45300012D03*
X105700013Y-45800140D03*
X105700013Y-46300012D03*
X105700013Y-46800140D03*
X105700013Y-47300012D03*
X105700013Y-47800140D03*
X105700013Y-48300012D03*
X105700013Y-48800140D03*
X105700013Y-49300012D03*
X105700013Y-49800140D03*
X105700013Y-50300012D03*
D19*
X106350000Y-50950000D03*
X106850127Y-50950000D03*
X107350000Y-50950000D03*
X107850127Y-50950000D03*
X108350000Y-50950000D03*
X108850127Y-50950000D03*
X109350000Y-50950000D03*
X109850127Y-50950000D03*
D20*
X108100064Y-47550203D03*
%TD*%
D17*
%TO.C,R142*%
X102667183Y-102320239D03*
X103532817Y-102320239D03*
%TD*%
D15*
%TO.C,R146*%
X92400000Y-102082817D03*
X92400000Y-101217183D03*
%TD*%
D17*
%TO.C,R144*%
X102667183Y-103624749D03*
X103532817Y-103624749D03*
%TD*%
D16*
%TO.C,C50*%
X92767051Y-46462014D03*
X87426945Y-46462014D03*
%TD*%
D26*
%TO.C,L4*%
X118744908Y-102950000D03*
D27*
X135100000Y-102950000D03*
%TD*%
D12*
%TO.C,U13*%
X185003597Y-45782575D03*
X185003597Y-45280575D03*
X185003597Y-44778575D03*
X185003597Y-44276575D03*
X185003597Y-43774575D03*
X185003597Y-43272575D03*
X185003597Y-42770575D03*
X185003597Y-42268575D03*
X185003597Y-41766575D03*
X185003597Y-41264575D03*
X185003597Y-40762575D03*
X185003597Y-40260575D03*
X185003597Y-39758575D03*
X185003597Y-39256575D03*
X179171597Y-39269575D03*
X179171597Y-39769575D03*
X179171597Y-40269575D03*
X179171597Y-40769575D03*
X179171597Y-41269575D03*
X179171597Y-41766575D03*
X179171597Y-42269575D03*
X179171597Y-42770575D03*
X179171597Y-43272575D03*
X179171597Y-43774575D03*
X179171597Y-44276575D03*
X179171597Y-44769575D03*
X179171597Y-45280575D03*
X179171597Y-45769575D03*
%TD*%
D15*
%TO.C,R148*%
X100333260Y-107037746D03*
X100333260Y-107903380D03*
%TD*%
D13*
%TO.C,C51*%
X99200000Y-91025000D03*
X99200000Y-93025000D03*
%TD*%
D12*
%TO.C,U24*%
X157020331Y-99788325D03*
X157020331Y-99286325D03*
X157020331Y-98784325D03*
X157020331Y-98282325D03*
X157020331Y-97780325D03*
X157020331Y-97278325D03*
X157020331Y-96776325D03*
X157020331Y-96274325D03*
X157020331Y-95772325D03*
X157020331Y-95270325D03*
X157020331Y-94768325D03*
X157020331Y-94266325D03*
X157020331Y-93764325D03*
X157020331Y-93262325D03*
X151188331Y-93275325D03*
X151188331Y-93775325D03*
X151188331Y-94275325D03*
X151188331Y-94775325D03*
X151188331Y-95275325D03*
X151188331Y-95772325D03*
X151188331Y-96275325D03*
X151188331Y-96776325D03*
X151188331Y-97278325D03*
X151188331Y-97780325D03*
X151188331Y-98282325D03*
X151188331Y-98775325D03*
X151188331Y-99286325D03*
X151188331Y-99775325D03*
%TD*%
D15*
%TO.C,R30*%
X112900000Y-77917183D03*
X112900000Y-78782817D03*
%TD*%
%TO.C,R40*%
X115100000Y-103884366D03*
X115100000Y-104750000D03*
%TD*%
D17*
%TO.C,R17*%
X102667183Y-53550000D03*
X103532817Y-53550000D03*
%TD*%
D30*
%TO.C,L11*%
X93525051Y-107625000D03*
X96724949Y-107625000D03*
%TD*%
D22*
%TO.C,C89*%
X68855949Y-58920845D03*
X67765779Y-58920845D03*
%TD*%
D17*
%TO.C,R61*%
X71363475Y-58918447D03*
X72229109Y-58918447D03*
%TD*%
M02*
