%TF.GenerationSoftware,KiCad,Pcbnew,9.0.5*%
%TF.CreationDate,2025-10-28T20:55:24+05:00*%
%TF.ProjectId,LV08,4c563038-2e6b-4696-9361-645f70636258,rev?*%
%TF.SameCoordinates,Original*%
%TF.FileFunction,Paste,Bot*%
%TF.FilePolarity,Positive*%
%FSLAX46Y46*%
G04 Gerber Fmt 4.6, Leading zero omitted, Abs format (unit mm)*
G04 Created by KiCad (PCBNEW 9.0.5) date 2025-10-28 20:55:24*
%MOMM*%
%LPD*%
G01*
G04 APERTURE LIST*
%ADD10R,0.540005X0.790094*%
%ADD11R,0.790094X0.540005*%
%ADD12R,3.009906X2.799086*%
%ADD13R,0.540005X0.565659*%
%ADD14R,0.900000X0.800000*%
%ADD15R,2.046380X1.620015*%
%ADD16R,1.350013X1.410008*%
%ADD17R,0.565659X0.540005*%
%ADD18R,2.375997X1.506248*%
%ADD19R,0.600000X1.000000*%
%ADD20R,0.532004X1.045009*%
%ADD21R,1.727991X1.485014*%
%ADD22R,1.132537X1.377013*%
%ADD23R,0.600000X0.300000*%
%ADD24R,0.750013X0.700000*%
%ADD25R,1.045009X0.532004*%
%ADD26R,1.377013X1.132537*%
%ADD27O,0.300000X1.000000*%
%ADD28R,1.000000X0.600000*%
%ADD29O,0.343002X1.731496*%
G04 APERTURE END LIST*
D10*
%TO.C,C209*%
X216450000Y-98354915D03*
X216450000Y-99445085D03*
%TD*%
%TO.C,C140*%
X173000000Y-74590170D03*
X173000000Y-73500000D03*
%TD*%
D11*
%TO.C,C84*%
X80650000Y-72300000D03*
X81740170Y-72300000D03*
%TD*%
%TO.C,C120*%
X184459830Y-38500000D03*
X185550000Y-38500000D03*
%TD*%
D12*
%TO.C,C181*%
X182100000Y-47850000D03*
X182100000Y-41850000D03*
%TD*%
D10*
%TO.C,C109*%
X163198424Y-45504915D03*
X163198424Y-46595085D03*
%TD*%
D12*
%TO.C,C255*%
X182100000Y-101850000D03*
X182100000Y-95850000D03*
%TD*%
D13*
%TO.C,R77*%
X162100000Y-43182817D03*
X162100000Y-42317183D03*
%TD*%
D10*
%TO.C,C173*%
X185200000Y-43954915D03*
X185200000Y-45045085D03*
%TD*%
D14*
%TO.C,C16*%
X105275000Y-50875025D03*
X105275000Y-49474975D03*
%TD*%
D11*
%TO.C,C259*%
X219645085Y-93750000D03*
X218554915Y-93750000D03*
%TD*%
D10*
%TO.C,C228*%
X151050000Y-101190170D03*
X151050000Y-100100000D03*
%TD*%
D15*
%TO.C,D1*%
X84096088Y-94690602D03*
X88703912Y-94709398D03*
%TD*%
D11*
%TO.C,C237*%
X179740170Y-92500000D03*
X178650000Y-92500000D03*
%TD*%
D10*
%TO.C,C220*%
X174091600Y-101814885D03*
X174091600Y-100724715D03*
%TD*%
%TO.C,C212*%
X202184000Y-102018085D03*
X202184000Y-100927915D03*
%TD*%
%TO.C,C170*%
X157200000Y-45050000D03*
X157200000Y-43959830D03*
%TD*%
%TO.C,C253*%
X177600000Y-98000000D03*
X177600000Y-99090170D03*
%TD*%
%TO.C,C201*%
X151150000Y-71750000D03*
X151150000Y-72840170D03*
%TD*%
%TO.C,C132*%
X201000000Y-74590170D03*
X201000000Y-73500000D03*
%TD*%
D11*
%TO.C,C75*%
X81490170Y-104625000D03*
X80400000Y-104625000D03*
%TD*%
%TO.C,C192*%
X220845085Y-57350000D03*
X219754915Y-57350000D03*
%TD*%
D16*
%TO.C,C25*%
X101325000Y-67100000D03*
X101325000Y-69100000D03*
%TD*%
D10*
%TO.C,C49*%
X80900000Y-109545085D03*
X80900000Y-108454915D03*
%TD*%
%TO.C,C127*%
X217600000Y-71154915D03*
X217600000Y-72245085D03*
%TD*%
D11*
%TO.C,C152*%
X212459830Y-66550000D03*
X213550000Y-66550000D03*
%TD*%
D10*
%TO.C,C97*%
X202100000Y-45395085D03*
X202100000Y-44304915D03*
%TD*%
D16*
%TO.C,C52*%
X103479600Y-90973400D03*
X103479600Y-92973400D03*
%TD*%
D10*
%TO.C,C144*%
X162075000Y-72429915D03*
X162075000Y-73520085D03*
%TD*%
%TO.C,C174*%
X151100000Y-43750000D03*
X151100000Y-44840170D03*
%TD*%
D17*
%TO.C,R6*%
X102634366Y-50150000D03*
X103500000Y-50150000D03*
%TD*%
D10*
%TO.C,C91*%
X217650000Y-43150000D03*
X217650000Y-44240170D03*
%TD*%
D11*
%TO.C,C115*%
X207555085Y-39624000D03*
X206464915Y-39624000D03*
%TD*%
D10*
%TO.C,C33*%
X100500000Y-78550000D03*
X100500000Y-79640170D03*
%TD*%
D11*
%TO.C,C55*%
X105540170Y-100000000D03*
X104450000Y-100000000D03*
%TD*%
D18*
%TO.C,C44*%
X140600000Y-72360554D03*
X140600000Y-68639446D03*
%TD*%
D10*
%TO.C,C94*%
X216500000Y-46654915D03*
X216500000Y-47745085D03*
%TD*%
%TO.C,C82*%
X78600000Y-96350000D03*
X78600000Y-97440170D03*
%TD*%
%TO.C,C247*%
X151050000Y-98845085D03*
X151050000Y-97754915D03*
%TD*%
D11*
%TO.C,C112*%
X149940170Y-44700000D03*
X148850000Y-44700000D03*
%TD*%
D10*
%TO.C,C219*%
X190100000Y-100650000D03*
X190100000Y-101740170D03*
%TD*%
D19*
%TO.C,U18*%
X224049924Y-35600152D03*
X223100216Y-35600152D03*
X222150254Y-35600152D03*
X222150000Y-33400000D03*
X224050178Y-33400000D03*
%TD*%
D11*
%TO.C,C153*%
X207740170Y-66500000D03*
X206650000Y-66500000D03*
%TD*%
D17*
%TO.C,R96*%
X224450000Y-44800000D03*
X225315634Y-44800000D03*
%TD*%
D13*
%TO.C,R5*%
X101596300Y-50922517D03*
X101596300Y-50056883D03*
%TD*%
D10*
%TO.C,C213*%
X201000000Y-100595085D03*
X201000000Y-99504915D03*
%TD*%
D11*
%TO.C,C125*%
X151740170Y-38500000D03*
X150650000Y-38500000D03*
%TD*%
D10*
%TO.C,C107*%
X163200000Y-43159830D03*
X163200000Y-44250000D03*
%TD*%
%TO.C,C147*%
X151100000Y-75290170D03*
X151100000Y-74200000D03*
%TD*%
D11*
%TO.C,C113*%
X149040170Y-43600000D03*
X147950000Y-43600000D03*
%TD*%
D10*
%TO.C,C199*%
X207100000Y-72000000D03*
X207100000Y-73090170D03*
%TD*%
D11*
%TO.C,C160*%
X156454915Y-66500000D03*
X157545085Y-66500000D03*
%TD*%
D10*
%TO.C,C196*%
X213100000Y-73090170D03*
X213100000Y-72000000D03*
%TD*%
D17*
%TO.C,R121*%
X221550000Y-90650000D03*
X220684366Y-90650000D03*
%TD*%
D11*
%TO.C,C231*%
X148804915Y-97100000D03*
X149895085Y-97100000D03*
%TD*%
D10*
%TO.C,C177*%
X177600000Y-44000000D03*
X177600000Y-45090170D03*
%TD*%
D13*
%TO.C,R57*%
X63800000Y-102167183D03*
X63800000Y-103032817D03*
%TD*%
D17*
%TO.C,R139*%
X99667183Y-103600000D03*
X100532817Y-103600000D03*
%TD*%
D20*
%TO.C,U6*%
X80549962Y-102800013D03*
X79600000Y-102800013D03*
X78650038Y-102800013D03*
X78650038Y-100300013D03*
X80549962Y-100300013D03*
%TD*%
D10*
%TO.C,C223*%
X172950000Y-98145085D03*
X172950000Y-97054915D03*
%TD*%
%TO.C,C202*%
X177600000Y-72000000D03*
X177600000Y-73090170D03*
%TD*%
%TO.C,C203*%
X205600000Y-71950000D03*
X205600000Y-73040170D03*
%TD*%
D11*
%TO.C,C242*%
X151740170Y-92500000D03*
X150650000Y-92500000D03*
%TD*%
D10*
%TO.C,C197*%
X185100000Y-73090170D03*
X185100000Y-72000000D03*
%TD*%
D18*
%TO.C,C70*%
X143600000Y-98360554D03*
X143600000Y-94639446D03*
%TD*%
D17*
%TO.C,R95*%
X223167183Y-37200000D03*
X224032817Y-37200000D03*
%TD*%
D10*
%TO.C,C142*%
X173000000Y-72250000D03*
X173000000Y-71159830D03*
%TD*%
D11*
%TO.C,C151*%
X212459830Y-67600000D03*
X213550000Y-67600000D03*
%TD*%
D10*
%TO.C,C178*%
X158600000Y-43959830D03*
X158600000Y-45050000D03*
%TD*%
D21*
%TO.C,C42*%
X143700000Y-68907417D03*
X143700000Y-72092583D03*
%TD*%
D18*
%TO.C,C43*%
X137600000Y-72360554D03*
X137600000Y-68639446D03*
%TD*%
D11*
%TO.C,C229*%
X149895085Y-98700000D03*
X148804915Y-98700000D03*
%TD*%
%TO.C,C122*%
X179740170Y-39650000D03*
X178650000Y-39650000D03*
%TD*%
D12*
%TO.C,C257*%
X210100000Y-101850000D03*
X210100000Y-95850000D03*
%TD*%
D11*
%TO.C,C156*%
X184450000Y-66500000D03*
X185540170Y-66500000D03*
%TD*%
D22*
%TO.C,R99*%
X107400000Y-102800000D03*
X109400000Y-102800000D03*
%TD*%
D11*
%TO.C,C157*%
X179745085Y-66500000D03*
X178654915Y-66500000D03*
%TD*%
D10*
%TO.C,C230*%
X147550000Y-98445085D03*
X147550000Y-97354915D03*
%TD*%
%TO.C,C143*%
X163200000Y-71159830D03*
X163200000Y-72250000D03*
%TD*%
D17*
%TO.C,R130*%
X102684366Y-77300000D03*
X103550000Y-77300000D03*
%TD*%
D10*
%TO.C,C111*%
X151100000Y-47290170D03*
X151100000Y-46200000D03*
%TD*%
%TO.C,C99*%
X191199606Y-43159830D03*
X191199606Y-44250000D03*
%TD*%
%TO.C,C171*%
X207100000Y-45190170D03*
X207100000Y-44100000D03*
%TD*%
D16*
%TO.C,C5*%
X98150000Y-41225000D03*
X98150000Y-43225000D03*
%TD*%
D10*
%TO.C,C258*%
X224000000Y-98650000D03*
X224000000Y-97559830D03*
%TD*%
%TO.C,C227*%
X162100000Y-100750000D03*
X162100000Y-101840170D03*
%TD*%
D17*
%TO.C,R37*%
X102167183Y-99900000D03*
X103032817Y-99900000D03*
%TD*%
D10*
%TO.C,C128*%
X216500000Y-72454915D03*
X216500000Y-73545085D03*
%TD*%
D14*
%TO.C,C72*%
X105325000Y-102900025D03*
X105325000Y-101499975D03*
%TD*%
D13*
%TO.C,R76*%
X190100000Y-43215634D03*
X190100000Y-42350000D03*
%TD*%
D17*
%TO.C,R131*%
X102684366Y-78450000D03*
X103550000Y-78450000D03*
%TD*%
D12*
%TO.C,C182*%
X154100000Y-47850000D03*
X154100000Y-41850000D03*
%TD*%
D17*
%TO.C,R124*%
X222482817Y-100750000D03*
X221617183Y-100750000D03*
%TD*%
D23*
%TO.C,U10*%
X220199974Y-103300000D03*
X220199974Y-103799873D03*
X220199974Y-104300000D03*
X218700000Y-104300000D03*
X218700000Y-103799873D03*
X218700000Y-103300000D03*
%TD*%
D10*
%TO.C,C146*%
X162100000Y-74754915D03*
X162100000Y-75845085D03*
%TD*%
%TO.C,C100*%
X190050000Y-44400000D03*
X190050000Y-45490170D03*
%TD*%
D22*
%TO.C,L8*%
X220116218Y-69650000D03*
X218183782Y-69650000D03*
%TD*%
D10*
%TO.C,C92*%
X216500000Y-44254915D03*
X216500000Y-45345085D03*
%TD*%
%TO.C,C141*%
X174100000Y-73595085D03*
X174100000Y-72504915D03*
%TD*%
%TO.C,C200*%
X179100000Y-71954915D03*
X179100000Y-73045085D03*
%TD*%
D11*
%TO.C,C126*%
X151740170Y-39600000D03*
X150650000Y-39600000D03*
%TD*%
D13*
%TO.C,R92*%
X162075000Y-71282817D03*
X162075000Y-70417183D03*
%TD*%
D17*
%TO.C,R129*%
X102684366Y-76150000D03*
X103550000Y-76150000D03*
%TD*%
D11*
%TO.C,C148*%
X150112394Y-72721952D03*
X149022224Y-72721952D03*
%TD*%
D10*
%TO.C,C102*%
X190050000Y-47840170D03*
X190050000Y-46750000D03*
%TD*%
D24*
%TO.C,Y2*%
X221250000Y-46650000D03*
X219899988Y-46650000D03*
X219899988Y-45650000D03*
X221250000Y-45650000D03*
%TD*%
D10*
%TO.C,C17*%
X100500000Y-51260000D03*
X100500000Y-50169830D03*
%TD*%
D12*
%TO.C,C207*%
X210100000Y-75800000D03*
X210100000Y-69800000D03*
%TD*%
D22*
%TO.C,L10*%
X220016218Y-95450000D03*
X218083782Y-95450000D03*
%TD*%
D11*
%TO.C,C240*%
X156414745Y-93650000D03*
X157504915Y-93650000D03*
%TD*%
D17*
%TO.C,R94*%
X224032817Y-38400000D03*
X223167183Y-38400000D03*
%TD*%
D10*
%TO.C,C226*%
X163200000Y-99509830D03*
X163200000Y-100600000D03*
%TD*%
D17*
%TO.C,R132*%
X102684366Y-79600000D03*
X103550000Y-79600000D03*
%TD*%
D10*
%TO.C,C103*%
X174100000Y-47895085D03*
X174100000Y-46804915D03*
%TD*%
D17*
%TO.C,R102*%
X220617183Y-63500000D03*
X221482817Y-63500000D03*
%TD*%
D13*
%TO.C,R11*%
X91500000Y-106050000D03*
X91500000Y-106915634D03*
%TD*%
%TO.C,R91*%
X190100000Y-71132817D03*
X190100000Y-70267183D03*
%TD*%
D11*
%TO.C,C232*%
X212454915Y-93650000D03*
X213545085Y-93650000D03*
%TD*%
D16*
%TO.C,C54*%
X99175000Y-91050000D03*
X99175000Y-93050000D03*
%TD*%
D11*
%TO.C,C83*%
X79017370Y-104597200D03*
X77927200Y-104597200D03*
%TD*%
D10*
%TO.C,C251*%
X207000000Y-97954915D03*
X207000000Y-99045085D03*
%TD*%
D21*
%TO.C,C13*%
X137589987Y-40932184D03*
X137589987Y-44117350D03*
%TD*%
D10*
%TO.C,C93*%
X217650000Y-45509830D03*
X217650000Y-46600000D03*
%TD*%
%TO.C,C139*%
X174100000Y-75920085D03*
X174100000Y-74829915D03*
%TD*%
D13*
%TO.C,R100*%
X145500000Y-72665634D03*
X145500000Y-71800000D03*
%TD*%
D17*
%TO.C,R122*%
X220684366Y-89500000D03*
X221550000Y-89500000D03*
%TD*%
D10*
%TO.C,C130*%
X216500000Y-74804915D03*
X216500000Y-75895085D03*
%TD*%
D11*
%TO.C,C161*%
X151740170Y-66500000D03*
X150650000Y-66500000D03*
%TD*%
D17*
%TO.C,R104*%
X222365634Y-74850000D03*
X221500000Y-74850000D03*
%TD*%
D13*
%TO.C,R2*%
X101637341Y-48538319D03*
X101637341Y-47672685D03*
%TD*%
D14*
%TO.C,C45*%
X105283000Y-76900025D03*
X105283000Y-75499975D03*
%TD*%
D10*
%TO.C,C222*%
X174091600Y-99478085D03*
X174091600Y-98387915D03*
%TD*%
D25*
%TO.C,U3*%
X84747574Y-108600038D03*
X84747574Y-109550000D03*
X84747574Y-110499962D03*
X82452426Y-110499962D03*
X82452426Y-108600038D03*
%TD*%
D26*
%TO.C,L7*%
X219050000Y-62833782D03*
X219050000Y-64766218D03*
%TD*%
D16*
%TO.C,C26*%
X99375000Y-67100000D03*
X99375000Y-69100000D03*
%TD*%
D11*
%TO.C,C238*%
X184450000Y-92500000D03*
X185540170Y-92500000D03*
%TD*%
D10*
%TO.C,C108*%
X162150000Y-44429915D03*
X162150000Y-45520085D03*
%TD*%
D11*
%TO.C,C244*%
X220850000Y-83300000D03*
X219759830Y-83300000D03*
%TD*%
D17*
%TO.C,R9*%
X102634366Y-52450000D03*
X103500000Y-52450000D03*
%TD*%
D11*
%TO.C,C116*%
X207555085Y-38481000D03*
X206464915Y-38481000D03*
%TD*%
D16*
%TO.C,C24*%
X103300000Y-67100000D03*
X103300000Y-69100000D03*
%TD*%
D13*
%TO.C,R20*%
X100457000Y-74600817D03*
X100457000Y-73735183D03*
%TD*%
D11*
%TO.C,C6*%
X105045085Y-47800000D03*
X103954915Y-47800000D03*
%TD*%
D16*
%TO.C,C3*%
X103150000Y-41125000D03*
X103150000Y-43125000D03*
%TD*%
D10*
%TO.C,C204*%
X158600000Y-72000000D03*
X158600000Y-73090170D03*
%TD*%
D17*
%TO.C,R101*%
X221482817Y-64750000D03*
X220617183Y-64750000D03*
%TD*%
D10*
%TO.C,C137*%
X191201576Y-73489814D03*
X191201576Y-74579984D03*
%TD*%
%TO.C,C96*%
X200998030Y-46620016D03*
X200998030Y-45529846D03*
%TD*%
%TO.C,C254*%
X205600000Y-98004915D03*
X205600000Y-99095085D03*
%TD*%
%TO.C,C224*%
X163200000Y-97159830D03*
X163200000Y-98250000D03*
%TD*%
D11*
%TO.C,C195*%
X219640170Y-67850000D03*
X218550000Y-67850000D03*
%TD*%
D13*
%TO.C,R12*%
X90350000Y-106050000D03*
X90350000Y-106915634D03*
%TD*%
D10*
%TO.C,C165*%
X218500000Y-36954915D03*
X218500000Y-38045085D03*
%TD*%
D11*
%TO.C,C117*%
X212459830Y-38500000D03*
X213550000Y-38500000D03*
%TD*%
D10*
%TO.C,C48*%
X86400000Y-109545085D03*
X86400000Y-108454915D03*
%TD*%
D11*
%TO.C,C166*%
X223254915Y-40050000D03*
X224345085Y-40050000D03*
%TD*%
D27*
%TO.C,U9*%
X82826170Y-70727776D03*
X82326043Y-70727776D03*
X81826170Y-70727776D03*
X81326043Y-70727776D03*
X80826170Y-70727776D03*
X80826170Y-66127826D03*
X81326043Y-66127826D03*
X81826170Y-66127826D03*
X82326043Y-66127826D03*
X82826170Y-66127826D03*
%TD*%
D10*
%TO.C,C104*%
X172975000Y-46795085D03*
X172975000Y-45704915D03*
%TD*%
D17*
%TO.C,R138*%
X102667183Y-102300000D03*
X103532817Y-102300000D03*
%TD*%
D11*
%TO.C,C154*%
X207740170Y-67650000D03*
X206650000Y-67650000D03*
%TD*%
D13*
%TO.C,R24*%
X101550000Y-77032817D03*
X101550000Y-76167183D03*
%TD*%
D11*
%TO.C,C241*%
X156404915Y-92500000D03*
X157495085Y-92500000D03*
%TD*%
D22*
%TO.C,R98*%
X106825000Y-79025000D03*
X108825000Y-79025000D03*
%TD*%
D10*
%TO.C,C105*%
X174100000Y-45545085D03*
X174100000Y-44454915D03*
%TD*%
D17*
%TO.C,R140*%
X102667183Y-103600000D03*
X103532817Y-103600000D03*
%TD*%
D11*
%TO.C,C159*%
X156459830Y-67650000D03*
X157550000Y-67650000D03*
%TD*%
%TO.C,C118*%
X212450000Y-39650000D03*
X213540170Y-39650000D03*
%TD*%
D28*
%TO.C,U26*%
X219904934Y-99386310D03*
X219904934Y-98436602D03*
X219904934Y-97486640D03*
X222105086Y-97486386D03*
X222105086Y-99386564D03*
%TD*%
D29*
%TO.C,U8*%
X77351772Y-102781547D03*
X76701784Y-102781547D03*
X76051797Y-102781547D03*
X75401556Y-102781547D03*
X74751568Y-102781547D03*
X74101581Y-102781547D03*
X73451594Y-102781547D03*
X72801606Y-102781547D03*
X72801606Y-97050025D03*
X73451594Y-97050025D03*
X74101581Y-97050025D03*
X74751568Y-97050025D03*
X75401556Y-97050025D03*
X76051797Y-97050025D03*
X76701784Y-97050025D03*
X77351772Y-97050025D03*
%TD*%
D11*
%TO.C,C239*%
X184454915Y-93650000D03*
X185545085Y-93650000D03*
%TD*%
D10*
%TO.C,C145*%
X163200000Y-73509830D03*
X163200000Y-74600000D03*
%TD*%
D12*
%TO.C,C205*%
X154050000Y-75800000D03*
X154050000Y-69800000D03*
%TD*%
%TO.C,C256*%
X154100000Y-101850000D03*
X154100000Y-95850000D03*
%TD*%
D10*
%TO.C,C221*%
X172950000Y-100495085D03*
X172950000Y-99404915D03*
%TD*%
D13*
%TO.C,R1*%
X100472720Y-48548565D03*
X100472720Y-47682931D03*
%TD*%
D19*
%TO.C,U25*%
X221449835Y-87300000D03*
X220500127Y-87300000D03*
X219550165Y-87300000D03*
X219549911Y-85099848D03*
X221450089Y-85099848D03*
%TD*%
D13*
%TO.C,R69*%
X213100000Y-42200000D03*
X213100000Y-43065634D03*
%TD*%
D26*
%TO.C,L9*%
X219100400Y-89000582D03*
X219100400Y-90933018D03*
%TD*%
D11*
%TO.C,C150*%
X147767309Y-72721952D03*
X146677139Y-72721952D03*
%TD*%
D10*
%TO.C,C95*%
X202150000Y-47745085D03*
X202150000Y-46654915D03*
%TD*%
D12*
%TO.C,C180*%
X210150000Y-47850000D03*
X210150000Y-41850000D03*
%TD*%
D18*
%TO.C,C15*%
X140600000Y-44395610D03*
X140600000Y-40674502D03*
%TD*%
D23*
%TO.C,U11*%
X214350881Y-32825573D03*
X214350881Y-32325700D03*
X214350881Y-31825573D03*
X215850855Y-31825573D03*
X215850855Y-32325700D03*
X215850855Y-32825573D03*
%TD*%
D17*
%TO.C,R103*%
X220365634Y-74850000D03*
X219500000Y-74850000D03*
%TD*%
D16*
%TO.C,C53*%
X101600000Y-91024200D03*
X101600000Y-93024200D03*
%TD*%
D10*
%TO.C,C40*%
X100457000Y-77126085D03*
X100457000Y-76035915D03*
%TD*%
%TO.C,C134*%
X201000000Y-72245085D03*
X201000000Y-71154915D03*
%TD*%
D16*
%TO.C,C4*%
X100650000Y-41125000D03*
X100650000Y-43125000D03*
%TD*%
D10*
%TO.C,C98*%
X201000000Y-44270085D03*
X201000000Y-43179915D03*
%TD*%
%TO.C,C135*%
X191200000Y-71159830D03*
X191200000Y-72250000D03*
%TD*%
D11*
%TO.C,C121*%
X179740170Y-38500000D03*
X178650000Y-38500000D03*
%TD*%
D22*
%TO.C,R19*%
X106925000Y-52925000D03*
X108925000Y-52925000D03*
%TD*%
D10*
%TO.C,C169*%
X179000000Y-45090170D03*
X179000000Y-44000000D03*
%TD*%
D11*
%TO.C,C74*%
X79054915Y-98800000D03*
X80145085Y-98800000D03*
%TD*%
%TO.C,C124*%
X156459830Y-38500000D03*
X157550000Y-38500000D03*
%TD*%
D10*
%TO.C,C66*%
X98000000Y-99854915D03*
X98000000Y-100945085D03*
%TD*%
%TO.C,C211*%
X216450000Y-100695085D03*
X216450000Y-101785255D03*
%TD*%
%TO.C,C110*%
X162150000Y-46767183D03*
X162150000Y-47857353D03*
%TD*%
%TO.C,C216*%
X191200000Y-97154915D03*
X191200000Y-98245085D03*
%TD*%
D17*
%TO.C,R58*%
X73700000Y-95200000D03*
X72834366Y-95200000D03*
%TD*%
D10*
%TO.C,C210*%
X217600000Y-99550000D03*
X217600000Y-100640170D03*
%TD*%
D13*
%TO.C,R117*%
X190100000Y-97265634D03*
X190100000Y-96400000D03*
%TD*%
D10*
%TO.C,C101*%
X191200000Y-45500000D03*
X191200000Y-46590170D03*
%TD*%
%TO.C,C246*%
X157200000Y-99090170D03*
X157200000Y-98000000D03*
%TD*%
%TO.C,C179*%
X205600000Y-44104915D03*
X205600000Y-45195085D03*
%TD*%
%TO.C,C250*%
X185200000Y-97959830D03*
X185200000Y-99050000D03*
%TD*%
%TO.C,C133*%
X202100000Y-73645085D03*
X202100000Y-72554915D03*
%TD*%
%TO.C,C252*%
X158600000Y-98000000D03*
X158600000Y-99090170D03*
%TD*%
%TO.C,C106*%
X173000000Y-44395085D03*
X173000000Y-43304915D03*
%TD*%
D11*
%TO.C,C236*%
X179740170Y-93650000D03*
X178650000Y-93650000D03*
%TD*%
%TO.C,C235*%
X207740170Y-93650000D03*
X206650000Y-93650000D03*
%TD*%
D13*
%TO.C,R21*%
X101727000Y-74600817D03*
X101727000Y-73735183D03*
%TD*%
D26*
%TO.C,L5*%
X220200000Y-36100000D03*
X220200000Y-38032436D03*
%TD*%
D10*
%TO.C,C167*%
X218500000Y-41195085D03*
X218500000Y-40104915D03*
%TD*%
D21*
%TO.C,C69*%
X140600000Y-94907417D03*
X140600000Y-98092583D03*
%TD*%
D17*
%TO.C,R97*%
X225332817Y-45950000D03*
X224467183Y-45950000D03*
%TD*%
D10*
%TO.C,C215*%
X201000000Y-98250000D03*
X201000000Y-97159830D03*
%TD*%
D11*
%TO.C,C119*%
X184459830Y-39650000D03*
X185550000Y-39650000D03*
%TD*%
%TO.C,C67*%
X99754915Y-101150000D03*
X100845085Y-101150000D03*
%TD*%
D19*
%TO.C,U20*%
X221449835Y-61300000D03*
X220500127Y-61300000D03*
X219550165Y-61300000D03*
X219549911Y-59099848D03*
X221450089Y-59099848D03*
%TD*%
D11*
%TO.C,C149*%
X149170085Y-71575000D03*
X148079915Y-71575000D03*
%TD*%
D10*
%TO.C,C249*%
X179050000Y-97954915D03*
X179050000Y-99045085D03*
%TD*%
%TO.C,C136*%
X190100000Y-72309830D03*
X190100000Y-73400000D03*
%TD*%
D26*
%TO.C,L6*%
X220225000Y-41741218D03*
X220225000Y-39808782D03*
%TD*%
D10*
%TO.C,C138*%
X202100000Y-74879915D03*
X202100000Y-75970085D03*
%TD*%
%TO.C,C175*%
X213100000Y-43950000D03*
X213100000Y-45040170D03*
%TD*%
D13*
%TO.C,R150*%
X151050000Y-69184366D03*
X151050000Y-70050000D03*
%TD*%
D17*
%TO.C,R149*%
X63732817Y-89700000D03*
X62867183Y-89700000D03*
%TD*%
D12*
%TO.C,C206*%
X182100000Y-75800000D03*
X182100000Y-69800000D03*
%TD*%
D11*
%TO.C,C193*%
X219645085Y-66300000D03*
X218554915Y-66300000D03*
%TD*%
D13*
%TO.C,R78*%
X145900000Y-44650000D03*
X145900000Y-43784366D03*
%TD*%
D17*
%TO.C,R137*%
X99667183Y-102350000D03*
X100532817Y-102350000D03*
%TD*%
D11*
%TO.C,C245*%
X219645485Y-92506800D03*
X218555315Y-92506800D03*
%TD*%
D13*
%TO.C,R18*%
X69500000Y-90465634D03*
X69500000Y-89600000D03*
%TD*%
D10*
%TO.C,C217*%
X190100000Y-98300000D03*
X190100000Y-99390170D03*
%TD*%
D11*
%TO.C,C123*%
X156459830Y-39650000D03*
X157550000Y-39650000D03*
%TD*%
%TO.C,C243*%
X151745085Y-93650000D03*
X150654915Y-93650000D03*
%TD*%
D10*
%TO.C,C225*%
X162100000Y-98350000D03*
X162100000Y-99440170D03*
%TD*%
D17*
%TO.C,R123*%
X220432817Y-100750000D03*
X219567183Y-100750000D03*
%TD*%
D10*
%TO.C,C10*%
X100500000Y-52600000D03*
X100500000Y-53690170D03*
%TD*%
D18*
%TO.C,C71*%
X137600000Y-98360554D03*
X137600000Y-94639446D03*
%TD*%
D11*
%TO.C,C87*%
X218250000Y-105550000D03*
X217159830Y-105550000D03*
%TD*%
%TO.C,C90*%
X215650000Y-33950000D03*
X214559830Y-33950000D03*
%TD*%
%TO.C,C233*%
X212454915Y-92500000D03*
X213545085Y-92500000D03*
%TD*%
%TO.C,C28*%
X105050000Y-74050000D03*
X103959830Y-74050000D03*
%TD*%
D10*
%TO.C,C198*%
X157100000Y-73095085D03*
X157100000Y-72004915D03*
%TD*%
D13*
%TO.C,R55*%
X63800000Y-101082817D03*
X63800000Y-100217183D03*
%TD*%
D10*
%TO.C,C129*%
X217598818Y-73504915D03*
X217598818Y-74595085D03*
%TD*%
%TO.C,C131*%
X190100000Y-75740170D03*
X190100000Y-74650000D03*
%TD*%
D11*
%TO.C,C163*%
X219850000Y-44250000D03*
X220940170Y-44250000D03*
%TD*%
D28*
%TO.C,U21*%
X219900000Y-73349835D03*
X219900000Y-72400127D03*
X219900000Y-71450165D03*
X222100152Y-71449911D03*
X222100152Y-73350089D03*
%TD*%
D18*
%TO.C,C14*%
X143800000Y-44360554D03*
X143800000Y-40639446D03*
%TD*%
D11*
%TO.C,C234*%
X207740170Y-92500000D03*
X206650000Y-92500000D03*
%TD*%
D10*
%TO.C,C194*%
X224000000Y-72640170D03*
X224000000Y-71550000D03*
%TD*%
D13*
%TO.C,R118*%
X162100000Y-97200000D03*
X162100000Y-96334366D03*
%TD*%
D28*
%TO.C,U19*%
X222504934Y-43413360D03*
X222504934Y-42463652D03*
X222504934Y-41513690D03*
X224705086Y-41513436D03*
X224705086Y-43413614D03*
%TD*%
D17*
%TO.C,R36*%
X100515634Y-99900000D03*
X99650000Y-99900000D03*
%TD*%
D11*
%TO.C,C155*%
X184450000Y-67650000D03*
X185540170Y-67650000D03*
%TD*%
%TO.C,C162*%
X151745085Y-67650000D03*
X150654915Y-67650000D03*
%TD*%
%TO.C,C158*%
X179745085Y-67650000D03*
X178654915Y-67650000D03*
%TD*%
D10*
%TO.C,C164*%
X220200000Y-34295085D03*
X220200000Y-33204915D03*
%TD*%
%TO.C,C208*%
X217600000Y-97159830D03*
X217600000Y-98250000D03*
%TD*%
D17*
%TO.C,R10*%
X102634366Y-53600000D03*
X103500000Y-53600000D03*
%TD*%
D10*
%TO.C,C214*%
X202184000Y-99478085D03*
X202184000Y-98387915D03*
%TD*%
D17*
%TO.C,R7*%
X102634366Y-51300000D03*
X103500000Y-51300000D03*
%TD*%
D10*
%TO.C,C248*%
X213150000Y-99090170D03*
X213150000Y-98000000D03*
%TD*%
%TO.C,C218*%
X191200000Y-99504915D03*
X191200000Y-100595085D03*
%TD*%
D13*
%TO.C,R119*%
X151050000Y-95184366D03*
X151050000Y-96050000D03*
%TD*%
D11*
%TO.C,C114*%
X147940170Y-44700000D03*
X146850000Y-44700000D03*
%TD*%
M02*
